<svg width="1954" height="693" xmlns="http://www.w3.org/2000/svg" xmlns:xlink="http://www.w3.org/1999/xlink" xml:space="preserve" overflow="hidden"><defs><clipPath id="clip0"><rect x="-206" y="1581" width="1954" height="693"/></clipPath><clipPath id="clip1"><rect x="-206" y="1587" width="687" height="687"/></clipPath><clipPath id="clip2"><rect x="-206" y="1587" width="687" height="687"/></clipPath><clipPath id="clip3"><rect x="480" y="1587" width="690" height="687"/></clipPath><clipPath id="clip4"><rect x="480" y="1587" width="690" height="687"/></clipPath></defs><g clip-path="url(#clip0)" transform="translate(206 -1581)"><g><g><g><path d="M632.582 271.403C626.148 253.153 609.942 240.018 590.283 237.125L451.622 216.806 391.403 93.6529C382.697 75.8221 363.889 64.2986 343.482 64.2986 323.125 64.2986 304.342 75.8221 295.611 93.6529L235.367 216.819 96.7177 237.163C77.0466 239.993 60.8275 253.115 54.3933 271.467 47.9717 289.995 52.7562 310.123 66.8685 323.995L168.638 424.127 145.032 562.877C141.72 582.218 150.324 602.054 167.013 613.438 183.334 624.416 205.213 625.621 222.79 616.382L343.507 552.306 464.3 616.395C472.117 620.52 480.887 622.703 489.682 622.703 500.52 622.703 511.015 619.504 520.089 613.4 536.702 602.067 545.293 582.244 541.981 562.903L518.388 424.139 620.17 324.007C634.258 310.111 639.042 289.983 632.582 271.403ZM602.34 305.897 491.116 415.332 516.929 567.167C518.605 576.913 514.315 586.584 505.825 592.384 497.131 598.222 485.405 598.844 476.153 593.97L343.494 523.573 210.924 593.945C201.571 598.869 189.832 598.209 181.253 592.422 172.673 586.571 168.384 576.888 170.059 567.141L195.885 415.332 84.674 305.897C77.6179 298.968 75.2066 288.955 78.3666 279.83 81.6535 270.489 90.0677 263.763 100.385 262.278L252.309 239.98 318.429 104.796C322.922 95.6075 332.77 89.6682 343.507 89.6682 354.282 89.6682 364.13 95.5949 368.622 104.783L434.73 239.968 586.616 262.215C596.921 263.738 605.373 270.49 608.647 279.779 611.807 288.955 609.396 298.955 602.34 305.897ZM341.806 241.084C315.815 241.084 294.875 249.016 279.595 264.639 254.086 290.719 254.632 328.601 254.67 330.213 254.822 337.117 260.47 342.6 267.348 342.6 267.425 342.6 267.513 342.6 267.59 342.6 274.582 342.473 280.141 336.686 280.039 329.693 280.039 329.401 279.811 300.58 297.858 282.267 308.175 271.784 322.973 266.479 341.794 266.479 348.799 266.479 354.485 260.793 354.485 253.788 354.485 246.783 348.812 241.084 341.806 241.084Z" fill="#272636" transform="matrix(1 0 0 1.00146 1061 1581)"/></g></g></g><g clip-path="url(#clip1)"><g clip-path="url(#clip2)"></g></g><g clip-path="url(#clip3)"><g clip-path="url(#clip4)"></g></g></g></svg>