<?xml version="1.0" standalone="no"?><!DOCTYPE svg PUBLIC "-//W3C//DTD SVG 1.1//EN" "http://www.w3.org/Graphics/SVG/1.1/DTD/svg11.dtd"><svg t="1734069798296" class="icon" viewBox="0 0 1024 1024" version="1.1" xmlns="http://www.w3.org/2000/svg" p-id="2978" xmlns:xlink="http://www.w3.org/1999/xlink" width="200" height="200"><path d="M831.39453125 150.85742187H198.23046875c-33.31054688 0-64.51171875 27.0703125-64.51171875 60.38085938 0 33.31054688 31.20117188 60.38085938 64.51171875 60.38085938h4.39453125v606.18164062l22.41210938-22.41210938h2.46093749l65.47851563-65.47851562 71.3671875 71.3671875 1.23046875-1.23046875 2.19726563 2.19726563 71.27929687-71.27929688 71.27929688 71.27929688 2.19726562-2.19726563 2.19726562 2.19726562 71.27929688-71.27929687 71.27929687 71.27929687 2.19726563-2.19726562 1.23046875 1.23046875 71.3671875-71.3671875 65.47851562 65.47851562h2.4609375l22.41210938 22.41210938V271.61914062h9.05273437c33.31054688 0 60.38085938-27.0703125 60.38085938-60.38085937 0-33.31054688-27.15820313-60.38085938-60.46875-60.38085937z m5.18554688 85.78125001h-14.23828126v-50.625h-34.27734374v55.8984375h-0.08789063v552.83203125l-54.66796875-54.66796875-1.23046875 1.23046875-1.23046875-1.23046875-71.3671875 71.3671875-71.27929688-71.3671875-2.19726562 2.19726562-2.19726562-2.19726562-71.27929688 71.27929687-71.27929687-71.27929687-2.19726563 2.19726562-2.19726562-2.19726562-71.27929688 71.3671875-71.3671875-71.3671875-1.23046875 1.23046875-1.23046875-1.23046875-54.66796875 54.66796875 0.17578125-608.73046875H202.625v50.625h-12.91992188c-13.97460938 0-25.3125-11.33789063-25.31249999-25.40039063 0-13.97460938 11.33789063-25.3125 25.31249999-25.3125h646.875c13.97460938 0 25.40039063 11.33789063 25.40039063 25.3125-0.08789063 14.0625-11.42578125 25.40039063-25.40039063 25.40039063zM315.65234375 458.5625h183.95507813c9.05273438 0 16.34765625-7.29492188 16.34765624-16.34765625s-7.29492188-16.34765625-16.34765625-16.34765625H315.65234375c-9.05273438 0-16.34765625 7.29492188-16.34765625 16.34765625s7.3828125 16.34765625 16.34765625 16.34765625z m0-103.27148438h287.2265625c9.05273438 0 16.34765625-7.29492188 16.34765625-16.34765624s-7.29492188-16.34765625-16.34765625-16.34765625H315.65234375c-9.05273438 0-16.34765625 7.29492188-16.34765625 16.34765625s7.3828125 16.34765625 16.34765625 16.34765625zM620.10546875 529.13867188H315.65234375c-9.05273438 0-16.34765625 7.29492188-16.34765625 16.34765624s7.29492188 16.34765625 16.34765625 16.34765626H620.10546875c9.05273438 0 16.34765625-7.29492188 16.34765625-16.34765626s-7.29492188-16.34765625-16.34765625-16.34765624zM585.74023438 632.41015625H315.65234375c-9.05273438 0-16.34765625 7.29492188-16.34765625 16.34765625s7.29492188 16.34765625 16.34765625 16.34765625h270c9.05273438 0 16.34765625-7.29492188 16.34765625-16.34765625 0.08789063-9.05273438-7.29492188-16.34765625-16.25976563-16.34765625z" p-id="2979"></path></svg>