<svg width="1997" height="690" xmlns="http://www.w3.org/2000/svg" xmlns:xlink="http://www.w3.org/1999/xlink" xml:space="preserve" overflow="hidden"><defs><clipPath id="clip0"><rect x="481" y="894" width="1997" height="690"/></clipPath><clipPath id="clip1"><rect x="1169" y="896" width="687" height="688"/></clipPath><clipPath id="clip2"><rect x="1169" y="896" width="687" height="688"/></clipPath><clipPath id="clip3"><rect x="480" y="894" width="690" height="687"/></clipPath><clipPath id="clip4"><rect x="480" y="894" width="690" height="687"/></clipPath></defs><g clip-path="url(#clip0)" transform="translate(-481 -894)"><g><g><g><path d="M557.781 101.21 132.992 101.21C110.644 101.21 89.7117 119.371 89.7117 141.719 89.7117 164.067 110.644 182.229 132.992 182.229L135.941 182.229 135.941 588.915 150.977 573.879 152.628 573.879 196.557 529.949 244.438 577.829 245.263 577.004 246.737 578.478 294.558 530.657 342.38 578.478 343.854 577.004 345.328 578.478 393.149 530.657 440.97 578.478 442.444 577.004 443.27 577.829 491.15 529.949 535.079 573.879 536.73 573.879 551.767 588.915 551.767 182.229 557.84 182.229C580.188 182.229 598.35 164.067 598.35 141.719 598.35 119.371 580.129 101.21 557.781 101.21ZM561.26 158.76 551.708 158.76 551.708 124.796 528.711 124.796 528.711 162.298 528.652 162.298 528.652 533.192 491.975 496.516 491.15 497.341 490.324 496.516 442.444 544.396 394.623 496.516 393.149 497.99 391.675 496.516 343.854 544.337 296.033 496.516 294.558 497.99 293.084 496.516 245.263 544.396 197.383 496.516 196.557 497.341 195.732 496.516 159.055 533.192 159.173 124.796 135.941 124.796 135.941 158.76 127.273 158.76C117.897 158.76 110.291 151.154 110.291 141.719 110.291 132.344 117.897 124.737 127.273 124.737L561.26 124.737C570.636 124.737 578.301 132.344 578.301 141.719 578.242 151.154 570.636 158.76 561.26 158.76ZM211.771 307.649 335.186 307.649C341.259 307.649 346.153 302.755 346.153 296.681 346.153 290.608 341.259 285.714 335.186 285.714L211.771 285.714C205.697 285.714 200.803 290.608 200.803 296.681 200.803 302.755 205.756 307.649 211.771 307.649ZM211.771 238.364 404.47 238.364C410.544 238.364 415.438 233.47 415.438 227.397 415.438 221.323 410.544 216.429 404.47 216.429L211.771 216.429C205.697 216.429 200.803 221.323 200.803 227.397 200.803 233.47 205.756 238.364 211.771 238.364ZM416.028 354.998 211.771 354.998C205.697 354.998 200.803 359.892 200.803 365.966 200.803 372.039 205.697 376.933 211.771 376.933L416.028 376.933C422.101 376.933 426.995 372.039 426.995 365.966 426.995 359.892 422.101 354.998 416.028 354.998ZM392.972 424.283 211.771 424.283C205.697 424.283 200.803 429.177 200.803 435.25 200.803 441.324 205.697 446.218 211.771 446.218L392.913 446.218C398.987 446.218 403.881 441.324 403.881 435.25 403.94 429.177 398.987 424.283 392.972 424.283Z" transform="matrix(1.00146 0 0 1 1790 894)"/></g></g></g><g clip-path="url(#clip1)"><g clip-path="url(#clip2)"></g></g><g clip-path="url(#clip3)"><g clip-path="url(#clip4)"></g></g></g></svg>