<?xml version="1.0" standalone="no"?><!DOCTYPE svg PUBLIC "-//W3C//DTD SVG 1.1//EN" "http://www.w3.org/Graphics/SVG/1.1/DTD/svg11.dtd"><svg height="2000" node-id="1" sillyvg="true" template-height="2000" template-width="2000" version="1.1" viewBox="0 0 2000 2000" width="2000" xmlns="http://www.w3.org/2000/svg" xmlns:xlink="http://www.w3.org/1999/xlink"><defs node-id="46"></defs><path d="M 992.50 1211.30 L 1757.60 1369.50 L 1770.30 1372.80 L 1779.20 1376.50 L 1783.30 1378.80 L 1786.30 1381.10 L 1788.50 1383.40 L 1789.90 1385.50 L 1790.70 1387.50 L 1791.00 1389.40 L 1790.80 1391.40 L 1790.20 1393.40 L 1789.00 1395.50 L 1787.10 1397.80 L 1784.50 1400.10 L 1780.80 1402.60 L 1775.90 1405.30 L 1225.40 1667.60 L 1220.10 1669.90 L 1214.00 1672.00 L 1200.30 1675.60 L 1185.10 1678.20 L 1173.20 1679.50 L 1160.90 1680.20 L 1148.50 1680.20 L 1136.30 1679.60 L 1128.30 1678.90 L 1113.40 1676.50 L 348.30 1518.30 L 335.60 1515.00 L 326.60 1511.30 L 322.60 1508.90 L 319.50 1506.70 L 317.40 1504.40 L 316.00 1502.20 L 315.20 1500.30 L 314.90 1498.30 L 315.10 1496.40 L 315.70 1494.40 L 316.90 1492.30 L 318.80 1490.00 L 321.40 1487.60 L 325.10 1485.10 L 330.00 1482.50 L 880.50 1220.10 L 885.80 1217.90 L 891.90 1215.70 L 905.60 1212.10 L 920.80 1209.50 L 932.70 1208.30 L 945.00 1207.60 L 957.40 1207.60 L 969.60 1208.20 L 977.60 1208.90 L 992.50 1211.30 Z" fill="#7c3114" fill-rule="nonzero" hidden="true" node-id="48" stroke="none" target-height="472.59998" target-width="1476.1" target-x="314.9" target-y="1207.6" visibility="hidden"></path><path d="M 1079.40 701.30 L 1070.20 701.50 L 1061.20 702.20 L 1052.40 703.30 L 1043.80 704.80 L 1035.40 706.70 L 1027.10 709.00 L 1019.00 711.70 L 1011.20 714.70 L 1003.60 718.10 L 996.20 721.90 L 989.00 726.00 L 982.10 730.50 L 975.50 735.20 L 969.20 740.20 L 963.20 745.60 L 957.40 751.30 L 952.00 757.20 L 947.00 763.30 L 942.20 769.80 L 937.80 776.40 L 933.80 783.30 L 930.20 790.50 L 926.90 797.80 L 924.00 805.30 L 921.50 813.10 L 919.50 820.90 L 917.90 829.00 L 916.80 837.20 L 916.10 845.60 L 915.80 854.20 L 916.10 863.40 L 916.90 872.30 L 918.20 881.10 L 920.00 889.70 L 922.40 898.20 L 925.20 906.60 L 928.50 914.70 L 932.30 922.60 L 936.50 930.20 L 941.20 937.70 L 946.30 944.90 L 951.80 951.70 L 957.80 958.30 L 964.10 964.60 L 971.00 970.70 L 978.00 976.30 L 985.50 981.50 L 993.40 986.40 L 1001.60 990.90 L 1010.30 995.10 L 1014.70 996.10 L 1021.30 995.60 L 1025.80 994.50 L 1049.00 987.10 L 1053.50 986.20 L 1057.90 985.60 L 1062.00 985.60 L 1066.60 986.30 L 1070.70 987.40 L 1074.20 988.80 L 1077.50 990.60 L 1082.90 994.60 L 1086.20 998.00 L 1090.60 1003.10 L 1092.40 1004.80 L 1094.30 1006.10 L 1097.50 1007.60 L 1100.60 1008.60 L 1103.80 1009.10 L 1106.80 1009.20 L 1112.60 1008.80 L 1125.50 1005.70 L 1134.10 1003.00 L 1142.50 999.90 L 1150.70 996.30 L 1158.80 992.30 L 1166.50 987.80 L 1174.00 983.00 L 1181.30 977.70 L 1188.20 972.10 L 1194.80 966.10 L 1201.10 959.80 L 1207.00 953.10 L 1212.60 945.90 L 1217.70 938.50 L 1222.40 930.90 L 1226.70 923.00 L 1230.40 914.90 L 1233.70 906.60 L 1236.50 898.20 L 1238.80 889.60 L 1240.70 880.80 L 1242.00 872.00 L 1242.70 863.20 L 1243.00 854.20 L 1242.80 845.60 L 1242.10 837.20 L 1240.90 829.00 L 1239.30 820.90 L 1237.30 813.10 L 1234.80 805.30 L 1231.90 797.80 L 1228.70 790.50 L 1225.00 783.40 L 1221.00 776.40 L 1216.60 769.80 L 1211.90 763.30 L 1206.80 757.20 L 1201.40 751.30 L 1195.60 745.60 L 1189.60 740.20 L 1183.30 735.20 L 1176.70 730.50 L 1169.80 726.00 L 1162.60 721.90 L 1155.20 718.10 L 1147.70 714.70 L 1139.80 711.70 L 1131.70 709.00 L 1123.40 706.70 L 1115.00 704.80 L 1106.40 703.30 L 1097.60 702.20 L 1088.60 701.50 L 1079.40 701.30 Z" fill="#b78374" fill-rule="nonzero" node-id="50" stroke="none" target-height="307.90002" target-width="327.2" target-x="915.8" target-y="701.3"></path><path d="M 1303.60 837.00 L 1302.40 822.70 L 1301.20 814.30 L 1299.50 804.90 L 1297.30 795.40 L 1294.60 785.80 L 1292.40 779.40 L 1287.30 767.50 L 1284.30 761.80 L 1281.00 756.70 L 1277.50 752.10 L 1266.60 740.10 L 1255.40 728.70 L 1235.40 710.00 L 1234.70 709.60 L 1233.40 709.70 L 1232.80 710.10 L 1232.40 711.40 L 1233.00 712.70 L 1252.80 731.30 L 1263.90 742.50 L 1274.70 754.40 L 1277.70 758.30 L 1280.60 762.60 L 1285.80 772.60 L 1290.20 783.80 L 1292.90 792.60 L 1295.20 801.70 L 1297.10 810.90 L 1298.50 820.00 L 1299.50 828.90 L 1300.60 846.00 L 1301.60 854.30 L 1304.20 869.00 L 1306.60 879.30 L 1308.00 883.80 L 1308.90 884.50 L 1309.90 884.50 L 1310.60 884.20 L 1311.20 883.00 L 1306.40 861.70 L 1304.20 845.70 L 1303.60 837.00 Z" fill="#b78374" fill-rule="nonzero" node-id="52" stroke="none" target-height="174.90002" target-width="78.79993" target-x="1232.4" target-y="709.6"></path><path d="M 963.80 1050.30 L 953.20 1049.50 L 947.40 1048.30 L 942.20 1046.60 L 937.50 1044.40 L 915.30 1028.80 L 893.80 1014.70 L 887.70 1010.20 L 877.20 1001.00 L 870.90 994.30 L 865.20 987.60 L 860.20 980.90 L 855.70 973.80 L 851.60 966.80 L 848.00 959.80 L 843.20 949.00 L 839.20 938.60 L 826.20 900.10 L 824.00 894.40 L 819.20 884.50 L 816.40 880.00 L 813.40 876.10 L 802.20 865.00 L 795.70 858.20 L 790.50 852.00 L 785.70 845.60 L 782.00 839.80 L 779.20 834.80 L 775.10 825.10 L 773.20 817.20 L 772.80 811.20 L 773.20 807.40 L 774.70 802.20 L 774.40 801.00 L 773.90 800.50 L 773.20 800.20 L 771.90 800.60 L 770.30 803.70 L 769.60 806.30 L 769.10 813.30 L 770.10 821.00 L 771.20 825.20 L 772.90 829.90 L 775.40 835.50 L 778.30 840.80 L 782.10 846.80 L 787.20 853.60 L 792.60 860.10 L 799.30 867.30 L 810.80 878.50 L 813.60 882.30 L 816.30 886.60 L 820.80 896.20 L 822.90 901.70 L 835.90 940.00 L 840.00 950.70 L 844.90 961.60 L 848.50 968.70 L 852.70 975.90 L 857.40 983.10 L 862.40 990.00 L 868.20 996.80 L 874.70 1003.60 L 885.50 1013.00 L 891.70 1017.60 L 913.30 1031.80 L 939.10 1050.10 L 943.10 1051.90 L 947.90 1052.90 L 963.60 1053.90 L 964.90 1053.40 L 965.50 1052.10 L 965.00 1050.80 L 963.80 1050.30 Z" fill="#b78374" fill-rule="nonzero" node-id="54" stroke="none" target-height="253.70001" target-width="196.40002" target-x="769.1" target-y="800.2"></path><path d="M 1779.10 763.20 L 1777.50 757.60 L 1775.50 752.20 L 1773.20 747.00 L 1770.40 741.90 L 1767.40 737.10 L 1764.00 732.50 L 1760.20 728.00 L 1751.80 719.90 L 1742.10 712.90 L 1736.80 709.70 L 849.50 222.30 L 842.90 219.00 L 836.20 216.30 L 829.30 214.10 L 822.30 212.40 L 815.30 211.20 L 808.20 210.50 L 801.10 210.40 L 794.10 210.70 L 787.10 211.60 L 780.20 212.90 L 773.40 214.60 L 766.80 216.90 L 760.40 219.60 L 754.20 222.80 L 748.30 226.40 L 742.70 230.40 L 737.40 234.90 L 732.40 239.80 L 727.90 245.10 L 723.70 250.80 L 188.70 1059.10 L 183.20 1068.70 L 179.20 1078.70 L 176.60 1089.10 L 175.50 1099.60 L 175.40 1105.00 L 176.60 1115.60 L 177.70 1121.00 L 179.30 1126.60 L 181.20 1132.00 L 183.60 1137.20 L 186.30 1142.30 L 189.40 1147.10 L 192.80 1151.70 L 196.50 1156.20 L 205.00 1164.30 L 214.60 1171.40 L 220.00 1174.50 L 1107.20 1661.90 L 1112.90 1664.70 L 1118.60 1667.20 L 1124.40 1669.20 L 1130.30 1670.90 L 1142.30 1673.10 L 1154.30 1673.80 L 1162.10 1673.50 L 1169.70 1672.60 L 1177.30 1671.20 L 1184.70 1669.10 L 1191.90 1666.50 L 1198.90 1663.40 L 1205.60 1659.70 L 1211.90 1655.40 L 1217.80 1650.70 L 1222.00 1646.80 L 1229.60 1638.20 L 1233.00 1633.40 L 1768.00 825.10 L 1771.00 820.40 L 1775.70 810.60 L 1779.00 800.30 L 1780.20 795.10 L 1781.30 784.60 L 1781.30 779.20 L 1780.20 768.60 L 1779.10 763.20 Z" fill="#e9faff" fill-rule="nonzero" node-id="56" stroke="none" target-height="1463.4" target-width="1605.9" target-x="175.4" target-y="210.4"></path><path d="M 1728.20 798.70 L 1193.20 1607.00 L 1190.30 1610.70 L 1187.00 1614.10 L 1183.20 1617.10 L 1179.10 1619.70 L 1174.70 1621.90 L 1169.90 1623.70 L 1164.90 1625.00 L 1159.80 1625.80 L 1154.40 1626.00 L 1146.00 1625.30 L 1137.80 1623.30 L 1130.30 1619.90 L 243.00 1132.60 L 236.20 1128.00 L 230.80 1122.60 L 228.50 1119.50 L 226.70 1116.40 L 225.20 1113.00 L 223.60 1106.50 L 223.30 1102.90 L 223.50 1099.00 L 224.30 1094.60 L 226.70 1088.70 L 228.60 1085.50 L 763.60 277.20 L 766.40 273.50 L 769.70 270.10 L 773.50 267.10 L 777.60 264.50 L 782.10 262.30 L 786.90 260.50 L 791.80 259.20 L 797.00 258.40 L 802.30 258.20 L 810.80 258.90 L 818.90 260.90 L 826.50 264.30 L 1713.80 751.60 L 1720.60 756.20 L 1726.00 761.60 L 1728.20 764.70 L 1730.10 767.80 L 1731.50 771.20 L 1732.60 774.60 L 1733.50 781.30 L 1733.30 785.20 L 1732.40 789.60 L 1731.50 792.40 L 1728.20 798.70 Z" fill="#c0edff" fill-rule="nonzero" node-id="58" stroke="none" target-height="1367.8" target-width="1510.2" target-x="223.3" target-y="258.2"></path><path d="M 833.50 465.90 L 836.20 463.00 L 839.60 461.20 L 843.50 460.50 L 845.40 460.70 L 849.20 462.00 L 1051.70 573.30 L 1045.00 581.40 L 1037.40 588.30 L 1033.40 591.10 L 1023.60 596.90 L 1018.30 600.60 L 1013.40 604.60 L 1008.70 608.90 L 1001.60 616.40 L 995.80 620.90 L 992.60 622.60 L 988.10 624.40 L 983.50 625.60 L 978.80 626.20 L 971.60 625.90 L 968.10 625.10 L 954.70 620.50 L 950.30 618.20 L 946.10 615.40 L 942.20 612.20 L 938.50 608.50 L 932.20 600.80 L 929.20 597.80 L 925.80 595.20 L 922.20 592.80 L 918.40 590.90 L 914.50 589.40 L 910.30 588.30 L 906.10 587.60 L 901.70 587.40 L 892.20 587.90 L 887.30 587.60 L 882.60 586.80 L 873.40 584.10 L 868.80 583.20 L 864.00 583.00 L 859.40 583.20 L 855.10 583.90 L 850.80 585.10 L 846.70 586.80 L 842.80 588.80 L 839.10 591.30 L 835.70 594.10 L 832.60 597.40 L 826.90 604.90 L 823.80 608.30 L 820.60 611.00 L 805.30 621.80 L 801.80 623.60 L 798.20 624.90 L 794.40 625.70 L 790.60 626.00 L 786.70 625.80 L 782.90 625.10 L 779.10 623.90 L 764.80 617.20 L 754.40 613.50 L 749.60 611.40 L 745.00 608.90 L 740.70 606.10 L 833.50 465.90 Z" fill="#83caff" fill-rule="nonzero" node-id="60" stroke="none" target-height="165.70001" target-width="310.99994" target-x="740.7" target-y="460.5"></path><path d="M 453.70 1063.00 L 451.60 1061.60 L 450.00 1059.90 L 448.70 1057.80 L 447.90 1055.40 L 447.50 1053.00 L 447.70 1050.50 L 448.30 1048.20 L 449.50 1046.00 L 513.30 949.60 L 513.40 954.80 L 513.00 960.20 L 512.10 965.60 L 508.00 979.10 L 506.10 987.30 L 504.80 995.60 L 503.90 1004.00 L 503.60 1012.60 L 504.00 1021.60 L 504.90 1030.40 L 506.30 1039.00 L 508.40 1047.40 L 510.90 1055.60 L 514.00 1063.60 L 517.60 1071.30 L 521.70 1078.70 L 526.30 1085.90 L 531.30 1092.70 L 536.80 1099.10 L 542.70 1105.20 L 548.90 1110.90 L 555.60 1116.20 L 562.60 1121.10 L 570.00 1125.50 L 577.70 1129.40 L 585.70 1132.80 L 594.10 1135.70 L 615.80 1141.30 L 621.30 1143.30 L 626.60 1145.70 L 631.70 1148.50 L 636.50 1151.50 L 641.20 1155.00 L 645.60 1158.70 L 649.70 1162.70 L 653.60 1167.10 L 657.20 1171.70 L 660.50 1176.60 L 453.70 1063.00 Z" fill="#83caff" fill-rule="nonzero" node-id="62" stroke="none" target-height="227" target-width="213" target-x="447.5" target-y="949.6"></path><path d="M 1123.30 1418.30 L 1120.50 1421.20 L 1117.10 1423.00 L 1113.30 1423.70 L 1109.40 1423.00 L 1013.10 1370.30 L 1021.20 1372.60 L 1029.40 1374.30 L 1037.60 1375.60 L 1046.00 1376.30 L 1054.50 1376.60 L 1063.70 1376.30 L 1072.80 1375.40 L 1081.80 1373.90 L 1090.70 1371.80 L 1099.50 1369.20 L 1108.00 1366.00 L 1116.30 1362.20 L 1132.90 1353.20 L 1141.50 1349.10 L 1150.20 1345.40 L 1159.10 1342.20 L 1168.00 1339.40 L 1177.00 1337.10 L 1123.30 1418.30 Z" fill="#83caff" fill-rule="nonzero" node-id="64" stroke="none" target-height="86.599976" target-width="163.90002" target-x="1013.1" target-y="1337.1"></path><path d="M 1480.30 838.70 L 1476.40 832.20 L 1473.00 825.60 L 1470.10 818.80 L 1467.70 811.80 L 1463.60 795.60 L 1461.00 786.90 L 1458.00 778.40 L 1454.60 770.00 L 1454.10 777.20 L 1454.30 780.90 L 1455.80 788.10 L 1458.40 795.90 L 1459.30 800.20 L 1459.30 805.20 L 1458.70 807.80 L 1457.30 811.50 L 1455.40 815.20 L 1453.00 818.80 L 1447.60 825.50 L 1441.20 832.30 L 1438.00 836.60 L 1435.30 841.10 L 1433.10 845.80 L 1431.30 850.70 L 1430.00 855.80 L 1429.20 861.00 L 1428.90 866.30 L 1429.80 882.30 L 1429.80 892.20 L 1429.40 902.00 L 1428.50 911.70 L 1427.20 921.40 L 1425.40 931.00 L 1423.10 940.50 L 1420.40 949.90 L 1417.20 959.20 L 1413.60 968.20 L 1409.50 977.20 L 1403.40 989.30 L 1402.20 992.80 L 1401.40 996.40 L 1401.00 1000.10 L 1401.00 1003.80 L 1402.90 1019.10 L 1403.40 1027.30 L 1403.50 1035.40 L 1403.10 1043.50 L 1402.20 1051.60 L 1400.90 1059.60 L 1399.20 1067.50 L 1397.10 1075.20 L 1394.50 1082.80 L 1391.50 1090.40 L 1388.00 1097.70 L 1384.20 1104.80 L 1380.00 1111.60 L 1375.30 1118.30 L 1369.80 1125.50 L 1365.70 1133.00 L 1361.20 1140.20 L 1356.40 1147.00 L 1351.20 1153.50 L 1345.60 1159.70 L 1339.70 1165.50 L 1333.50 1170.90 L 1327.00 1175.90 L 1320.20 1180.60 L 1313.20 1184.80 L 1305.90 1188.60 L 1298.40 1192.00 L 1290.70 1194.90 L 1282.80 1197.30 L 1274.70 1199.30 L 1253.70 1202.60 L 1245.00 1204.30 L 1236.30 1206.40 L 1227.70 1209.00 L 1219.30 1211.90 L 1210.90 1215.30 L 1202.70 1219.10 L 1194.50 1223.40 L 1186.60 1227.90 L 1178.80 1232.90 L 1171.20 1238.30 L 1156.30 1249.70 L 1148.70 1254.70 L 1140.70 1259.20 L 1132.50 1263.20 L 1124.00 1266.60 L 1115.30 1269.40 L 1106.50 1271.60 L 1097.40 1273.30 L 1089.60 1274.20 L 1081.80 1274.70 L 1074.00 1274.70 L 1066.30 1274.30 L 1058.50 1273.40 L 1043.40 1270.90 L 1035.90 1270.20 L 1028.60 1270.00 L 1021.20 1270.30 L 1005.00 1272.20 L 996.40 1272.90 L 987.80 1273.20 L 970.50 1272.60 L 953.50 1270.50 L 936.60 1266.80 L 920.20 1261.70 L 908.80 1257.30 L 902.30 1255.90 L 895.60 1255.60 L 883.40 1257.00 L 874.90 1257.50 L 866.40 1257.60 L 858.00 1257.20 L 849.60 1256.30 L 841.30 1255.00 L 833.10 1253.30 L 825.00 1251.10 L 817.10 1248.50 L 809.20 1245.50 L 801.50 1242.00 L 794.10 1238.10 L 786.80 1233.90 L 779.70 1229.20 L 772.90 1224.20 L 766.30 1218.80 L 760.00 1213.00 L 753.90 1206.80 L 748.20 1200.30 L 738.90 1188.70 L 734.80 1184.40 L 730.50 1180.20 L 725.70 1176.30 L 720.60 1172.70 L 714.00 1168.60 L 706.80 1164.90 L 699.10 1161.60 L 690.70 1158.60 L 687.00 1156.60 L 682.40 1152.20 L 679.50 1148.60 L 676.30 1144.00 L 669.50 1132.60 L 665.90 1127.30 L 657.80 1117.60 L 648.60 1109.00 L 638.60 1101.90 L 633.30 1098.80 L 622.20 1093.70 L 616.40 1091.70 L 610.50 1090.10 L 604.50 1088.90 L 598.30 1088.10 L 590.80 1087.60 L 581.80 1086.40 L 573.00 1084.60 L 564.50 1082.30 L 556.20 1079.30 L 548.10 1075.80 L 540.40 1071.80 L 532.90 1067.30 L 525.80 1062.30 L 519.10 1056.80 L 521.90 1063.60 L 525.10 1070.10 L 528.70 1076.40 L 532.70 1082.50 L 537.10 1088.30 L 541.70 1093.90 L 546.70 1099.10 L 552.00 1104.10 L 557.60 1108.70 L 563.50 1113.00 L 569.70 1117.00 L 576.20 1120.60 L 582.80 1123.80 L 589.70 1126.70 L 596.90 1129.10 L 604.40 1131.10 L 611.80 1132.70 L 617.80 1134.40 L 623.60 1136.50 L 629.30 1139.00 L 634.70 1141.90 L 640.00 1145.20 L 644.90 1148.70 L 649.60 1152.60 L 654.10 1156.90 L 658.30 1161.50 L 662.20 1166.30 L 665.70 1171.40 L 669.00 1176.80 L 671.90 1182.50 L 676.90 1194.30 L 679.20 1198.90 L 681.40 1202.60 L 684.00 1206.00 L 686.30 1208.30 L 688.40 1209.60 L 695.80 1213.40 L 702.70 1217.50 L 708.90 1221.90 L 714.50 1226.50 L 719.80 1231.60 L 724.50 1236.90 L 728.70 1242.50 L 736.50 1255.50 L 741.10 1262.20 L 745.90 1268.70 L 751.00 1274.80 L 756.40 1280.60 L 762.20 1286.20 L 768.20 1291.40 L 774.40 1296.30 L 780.90 1300.80 L 787.60 1305.00 L 794.60 1308.90 L 801.70 1312.30 L 809.00 1315.40 L 816.40 1318.10 L 824.10 1320.40 L 831.80 1322.40 L 839.70 1323.90 L 847.60 1324.90 L 855.70 1325.60 L 869.00 1326.10 L 873.60 1327.10 L 878.10 1328.70 L 889.60 1334.80 L 904.40 1341.80 L 912.00 1344.70 L 922.30 1348.20 L 932.80 1351.00 L 943.40 1353.20 L 959.60 1355.40 L 967.80 1355.90 L 983.30 1356.40 L 990.30 1357.10 L 997.20 1358.20 L 1004.10 1359.90 L 1017.90 1364.30 L 1025.10 1366.10 L 1032.30 1367.50 L 1039.70 1368.50 L 1047.00 1369.20 L 1054.50 1369.40 L 1063.20 1369.10 L 1071.90 1368.20 L 1080.40 1366.80 L 1088.80 1364.90 L 1097.10 1362.30 L 1105.20 1359.30 L 1113.10 1355.70 L 1128.60 1347.30 L 1144.50 1339.90 L 1160.90 1334.00 L 1169.10 1331.60 L 1185.80 1328.10 L 1194.20 1326.90 L 1202.70 1326.10 L 1211.10 1325.70 L 1231.30 1325.60 L 1239.10 1324.90 L 1246.90 1323.70 L 1254.50 1322.10 L 1262.00 1320.00 L 1269.40 1317.50 L 1276.60 1314.60 L 1283.60 1311.30 L 1290.40 1307.50 L 1297.00 1303.40 L 1303.40 1298.90 L 1309.50 1294.00 L 1315.30 1288.70 L 1320.80 1283.10 L 1325.90 1277.20 L 1331.40 1270.30 L 1337.00 1265.00 L 1342.30 1259.60 L 1347.20 1253.80 L 1351.80 1247.90 L 1356.00 1241.70 L 1359.90 1235.20 L 1363.40 1228.60 L 1366.50 1221.80 L 1369.20 1214.80 L 1371.50 1207.60 L 1373.40 1200.40 L 1374.90 1193.00 L 1376.00 1185.60 L 1376.70 1178.00 L 1377.00 1163.70 L 1378.30 1157.00 L 1379.60 1153.80 L 1381.20 1150.80 L 1388.70 1140.50 L 1393.70 1132.90 L 1398.40 1125.10 L 1402.60 1117.10 L 1406.50 1108.80 L 1410.00 1100.50 L 1413.00 1091.90 L 1415.60 1083.20 L 1417.80 1074.40 L 1419.50 1065.50 L 1420.80 1056.40 L 1422.30 1041.70 L 1423.20 1036.90 L 1424.70 1032.30 L 1426.60 1027.80 L 1429.00 1023.50 L 1431.70 1019.50 L 1434.90 1015.70 L 1438.40 1012.30 L 1445.40 1006.90 L 1451.50 1001.50 L 1456.50 995.40 L 1458.30 992.20 L 1459.20 989.90 L 1459.90 985.40 L 1459.70 981.30 L 1458.20 973.00 L 1457.90 968.80 L 1458.10 964.60 L 1458.70 960.50 L 1459.80 956.60 L 1461.40 952.80 L 1463.30 949.30 L 1465.70 946.00 L 1476.10 934.70 L 1482.30 925.70 L 1487.30 916.00 L 1491.00 905.70 L 1493.10 895.00 L 1493.70 889.40 L 1493.90 883.80 L 1493.70 877.70 L 1493.00 871.80 L 1491.90 865.90 L 1490.40 860.20 L 1488.50 854.60 L 1486.20 849.10 L 1483.50 843.80 L 1480.30 838.70 Z" fill="#f1eedb" fill-rule="nonzero" node-id="66" stroke="none" target-height="599.4" target-width="974.80005" target-x="519.1" target-y="770"></path><path d="M 592.10 1087.70 L 598.30 1088.10 L 604.50 1088.90 L 610.50 1090.10 L 616.40 1091.70 L 627.90 1096.10 L 633.30 1098.80 L 643.80 1105.30 L 648.60 1109.10 L 653.30 1113.20 L 657.80 1117.60 L 662.00 1122.30 L 669.50 1132.60 L 676.30 1144.00 L 679.50 1148.60 L 684.90 1154.80 L 689.00 1157.90 L 699.10 1161.60 L 706.90 1164.90 L 714.00 1168.60 L 720.60 1172.70 L 725.70 1176.30 L 730.50 1180.20 L 734.90 1184.40 L 738.90 1188.80 L 748.20 1200.30 L 753.90 1206.90 L 760.00 1213.00 L 766.30 1218.80 L 772.90 1224.20 L 779.80 1229.30 L 786.80 1233.90 L 794.10 1238.20 L 801.60 1242.00 L 809.20 1245.50 L 817.10 1248.50 L 825.00 1251.10 L 833.10 1253.30 L 841.30 1255.00 L 849.60 1256.40 L 858.00 1257.20 L 866.40 1257.60 L 874.90 1257.60 L 883.40 1257.00 L 895.60 1255.60 L 902.30 1255.90 L 908.80 1257.30 L 920.20 1261.70 L 936.70 1266.80 L 945.00 1268.90 L 962.00 1271.80 L 979.20 1273.10 L 987.80 1273.20 L 996.40 1272.90 L 1005.00 1272.30 L 1021.20 1270.30 L 1028.60 1270.00 L 1036.00 1270.20 L 1043.40 1270.90 L 1058.50 1273.50 L 1066.30 1274.30 L 1074.00 1274.70 L 1081.80 1274.70 L 1089.60 1274.20 L 1097.40 1273.30 L 1106.50 1271.70 L 1115.40 1269.40 L 1124.00 1266.60 L 1132.50 1263.20 L 1140.80 1259.30 L 1148.70 1254.80 L 1156.30 1249.70 L 1171.20 1238.40 L 1178.80 1233.00 L 1186.60 1228.00 L 1194.50 1223.40 L 1202.70 1219.10 L 1210.90 1215.30 L 1219.30 1212.00 L 1227.70 1209.00 L 1236.30 1206.40 L 1245.00 1204.30 L 1253.70 1202.60 L 1274.70 1199.30 L 1282.80 1197.30 L 1290.70 1194.90 L 1298.40 1192.00 L 1305.90 1188.60 L 1313.20 1184.80 L 1320.20 1180.60 L 1327.00 1175.90 L 1333.50 1170.90 L 1339.70 1165.50 L 1345.60 1159.70 L 1351.20 1153.50 L 1356.40 1147.00 L 1361.30 1140.20 L 1365.70 1133.00 L 1370.30 1124.80 L 1375.40 1118.30 L 1380.00 1111.60 L 1384.20 1104.80 L 1388.10 1097.70 L 1391.50 1090.40 L 1394.50 1082.90 L 1397.10 1075.20 L 1399.20 1067.50 L 1401.00 1059.60 L 1402.20 1051.60 L 1403.10 1043.50 L 1403.50 1035.40 L 1403.40 1027.30 L 1402.90 1019.10 L 1401.00 1003.80 L 1401.00 1000.10 L 1401.40 996.40 L 1403.40 989.30 L 1409.50 977.20 L 1413.60 968.20 L 1417.20 959.20 L 1420.40 949.90 L 1423.10 940.50 L 1425.40 931.00 L 1427.20 921.50 L 1428.60 911.70 L 1429.40 902.00 L 1429.90 892.20 L 1429.80 882.30 L 1429.00 866.30 L 1429.20 861.00 L 1430.00 855.80 L 1431.30 850.70 L 1433.10 845.80 L 1435.30 841.10 L 1438.00 836.60 L 1441.20 832.40 L 1450.40 822.30 L 1455.40 815.30 L 1457.40 811.50 L 1458.70 807.80 L 1459.50 802.70 L 1459.30 800.20 L 1458.40 795.90 L 1455.80 788.10 L 1454.40 780.90 L 1454.10 777.20 L 1454.60 770.00 L 1450.90 762.00 L 1446.70 754.20 L 1442.20 746.50 L 1437.20 739.00 L 1428.00 726.30 L 1424.50 720.60 L 1421.30 714.60 L 1415.10 700.60 L 1411.20 693.20 L 1407.00 686.00 L 1402.40 679.00 L 1397.40 672.30 L 1392.00 665.90 L 1386.30 659.80 L 1380.30 654.10 L 1364.80 641.40 L 1363.00 639.10 L 1361.60 636.40 L 1360.80 633.60 L 1360.50 630.60 L 1361.10 623.70 L 1361.10 619.90 L 1360.70 616.10 L 1358.70 609.00 L 1357.20 605.70 L 1353.10 599.80 L 1348.00 594.80 L 1341.90 591.00 L 1335.10 588.60 L 1331.50 587.90 L 1326.80 587.60 L 1318.00 588.30 L 1314.00 588.20 L 1309.90 587.70 L 1305.90 586.70 L 1302.10 585.40 L 1298.30 583.60 L 1294.80 581.50 L 1291.50 579.00 L 1282.50 570.30 L 1276.40 564.90 L 1270.10 559.90 L 1263.60 555.20 L 1256.90 551.00 L 1249.90 547.10 L 1242.80 543.60 L 1235.50 540.40 L 1228.00 537.70 L 1220.30 535.40 L 1212.60 533.50 L 1204.70 532.00 L 1196.80 530.90 L 1188.70 530.30 L 1180.40 530.10 L 1171.80 530.30 L 1163.20 531.10 L 1149.60 533.00 L 1144.60 533.30 L 1135.10 532.90 L 1125.80 531.00 L 1121.40 529.50 L 1113.60 526.20 L 1110.00 525.20 L 1106.30 524.50 L 1102.40 524.30 L 1095.30 525.10 L 1088.60 527.20 L 1084.50 529.30 L 1080.80 532.00 L 1077.40 535.20 L 1073.20 540.70 L 1071.50 543.80 L 1070.10 547.20 L 1068.30 555.10 L 1066.50 560.70 L 1064.30 566.00 L 1061.80 571.00 L 1058.90 575.70 L 1055.00 580.90 L 1051.00 585.50 L 1046.80 589.80 L 1042.30 593.60 L 1037.50 597.00 L 1027.50 603.00 L 1022.70 606.30 L 1018.10 610.00 L 1013.80 614.00 L 1006.60 621.60 L 1003.20 624.50 L 999.60 627.00 L 995.80 629.10 L 991.70 630.80 L 987.60 632.10 L 983.40 632.90 L 979.10 633.40 L 974.80 633.40 L 970.50 633.00 L 966.20 632.10 L 951.80 627.10 L 946.80 624.50 L 941.90 621.30 L 937.40 617.60 L 933.20 613.30 L 926.60 605.30 L 923.70 602.50 L 920.60 600.20 L 917.20 598.20 L 913.50 596.70 L 909.80 595.50 L 905.90 594.80 L 901.80 594.60 L 893.30 595.10 L 888.70 595.00 L 884.20 594.40 L 879.80 593.50 L 871.80 591.10 L 867.90 590.40 L 864.00 590.20 L 860.20 590.40 L 853.10 592.00 L 846.50 595.00 L 843.40 597.00 L 838.10 602.10 L 832.40 609.60 L 828.80 613.50 L 825.10 616.80 L 810.00 627.40 L 806.90 629.20 L 800.20 631.80 L 795.50 632.80 L 790.70 633.20 L 785.90 632.90 L 781.20 632.10 L 776.50 630.60 L 762.20 623.90 L 751.50 620.10 L 746.00 617.70 L 740.80 614.80 L 735.80 611.60 L 722.90 601.70 L 719.70 598.80 L 716.70 595.50 L 711.80 589.10 L 709.20 586.70 L 706.30 584.90 L 703.10 583.50 L 699.80 582.60 L 696.20 582.30 L 692.70 582.60 L 689.20 583.50 L 686.00 585.00 L 683.00 587.00 L 680.30 589.40 L 675.70 595.70 L 673.10 598.70 L 670.10 601.40 L 663.20 606.40 L 656.50 612.50 L 653.60 615.90 L 648.70 623.30 L 645.10 631.50 L 642.80 640.20 L 642.10 649.30 L 642.50 657.80 L 642.10 660.20 L 640.20 664.70 L 637.00 668.30 L 635.00 669.70 L 632.80 670.80 L 626.30 672.50 L 622.50 673.90 L 615.40 677.60 L 612.20 680.00 L 606.50 685.50 L 601.90 692.10 L 600.10 695.60 L 598.70 699.40 L 596.40 708.60 L 594.90 713.30 L 593.00 717.70 L 590.60 722.00 L 587.90 726.10 L 581.40 734.00 L 578.70 738.30 L 576.50 743.00 L 575.00 747.90 L 574.00 753.00 L 573.70 758.20 L 573.90 762.50 L 575.40 772.40 L 575.60 778.00 L 575.30 783.60 L 574.30 789.10 L 572.80 794.50 L 570.80 799.90 L 568.20 804.90 L 565.10 809.80 L 557.10 819.50 L 549.50 830.40 L 546.30 836.20 L 540.90 848.20 L 537.00 860.80 L 535.60 867.20 L 534.60 873.70 L 534.00 880.40 L 533.80 887.10 L 534.20 900.20 L 534.00 904.30 L 533.30 908.40 L 530.90 916.30 L 529.10 919.90 L 527.00 923.40 L 523.00 928.70 L 521.70 930.90 L 520.00 935.50 L 519.50 940.50 L 520.40 948.90 L 520.70 953.70 L 520.40 958.60 L 519.80 963.50 L 518.80 968.40 L 515.00 981.00 L 513.20 988.70 L 511.90 996.60 L 511.10 1004.50 L 510.80 1012.60 L 511.10 1020.30 L 511.80 1027.90 L 512.90 1035.40 L 514.60 1042.70 L 516.60 1049.90 L 519.10 1056.80 L 525.80 1062.30 L 532.90 1067.30 L 540.40 1071.80 L 548.10 1075.90 L 556.10 1079.30 L 564.50 1082.30 L 573.00 1084.60 L 581.80 1086.40 L 592.00 1087.70 Z" fill="#ffffff" fill-rule="nonzero" node-id="68" stroke="none" target-height="750.39996" target-width="948.7" target-x="510.8" target-y="524.3"></path><path d="M 1507.30 838.20 L 1496.30 854.80 L 1493.60 847.90 L 1490.30 841.20 L 1482.90 829.10 L 1479.90 823.30 L 1477.30 817.30 L 1475.10 811.20 L 1473.30 804.80 L 1503.10 821.20 L 1505.10 822.60 L 1506.80 824.40 L 1508.10 826.40 L 1508.90 828.80 L 1509.20 831.20 L 1509.10 833.70 L 1508.40 836.00 L 1507.30 838.20 Z" fill="#83caff" fill-rule="nonzero" node-id="70" stroke="none" target-height="50" target-width="35.899902" target-x="1473.3" target-y="804.8"></path><path d="M 1179.70 741.60 L 1181.40 749.90 L 1182.70 758.40 L 1183.40 767.10 L 1183.70 776.00 L 1183.50 784.40 L 1182.80 792.60 L 1181.70 800.60 L 1180.20 808.40 L 1178.30 816.10 L 1176.00 823.80 L 1173.30 831.20 L 1170.20 838.40 L 1166.80 845.40 L 1163.10 852.20 L 1157.90 860.50 L 1152.20 868.30 L 1146.10 875.70 L 1139.40 882.80 L 1132.40 889.40 L 1124.90 895.60 L 1117.10 901.20 L 1108.90 906.40 L 1102.00 910.20 L 1095.00 913.60 L 1087.80 916.60 L 1080.40 919.30 L 1072.80 921.70 L 1065.10 923.60 L 1057.20 925.10 L 1049.20 926.10 L 1041.00 926.80 L 1032.60 927.10 L 1024.20 926.80 L 1016.10 926.10 L 1008.10 925.10 L 1000.20 923.60 L 992.50 921.70 L 983.00 918.70 L 973.90 915.20 L 965.00 911.10 L 956.50 906.50 L 948.20 901.30 L 940.40 895.70 L 933.00 889.60 L 925.90 883.00 L 928.00 891.50 L 930.50 899.80 L 933.50 908.00 L 937.00 915.90 L 941.00 923.60 L 945.50 931.10 L 950.40 938.20 L 955.80 945.20 L 961.50 951.80 L 967.70 958.10 L 974.40 964.10 L 981.40 969.80 L 988.80 975.00 L 996.50 979.90 L 1004.70 984.40 L 1013.30 988.50 L 1016.10 989.00 L 1021.40 988.20 L 1025.20 987.20 L 1041.90 981.70 L 1050.90 979.30 L 1055.50 978.60 L 1059.90 978.40 L 1067.30 979.10 L 1071.80 980.20 L 1076.00 981.80 L 1080.10 983.80 L 1083.90 986.20 L 1087.50 989.10 L 1091.00 992.60 L 1096.40 998.70 L 1098.40 1000.10 L 1100.60 1001.10 L 1105.40 1002.00 L 1111.60 1001.60 L 1123.70 998.80 L 1131.90 996.20 L 1139.90 993.30 L 1147.60 990.00 L 1155.00 986.30 L 1162.30 982.20 L 1169.20 977.80 L 1175.90 973.00 L 1182.30 968.00 L 1188.30 962.60 L 1194.10 956.90 L 1199.60 951.00 L 1204.70 944.80 L 1209.40 938.40 L 1213.80 931.60 L 1217.90 924.70 L 1221.50 917.60 L 1224.80 910.20 L 1227.60 902.70 L 1230.10 894.90 L 1232.10 887.10 L 1233.70 879.10 L 1234.90 871.00 L 1235.60 862.70 L 1235.80 854.20 L 1235.60 845.60 L 1234.80 837.20 L 1233.60 829.00 L 1231.90 821.00 L 1229.70 813.10 L 1227.20 805.40 L 1224.10 797.90 L 1220.70 790.60 L 1216.80 783.60 L 1212.60 776.80 L 1208.00 770.20 L 1203.00 763.90 L 1197.70 757.90 L 1192.00 752.20 L 1186.10 746.70 L 1179.70 741.60 Z" fill="#fe9d14" fill-rule="nonzero" node-id="72" stroke="none" target-height="260.40002" target-width="309.90002" target-x="925.9" target-y="741.6"></path><path d="M 1183.70 776.00 L 1183.40 767.10 L 1182.70 758.40 L 1181.40 749.90 L 1179.70 741.60 L 1172.80 736.60 L 1165.60 731.90 L 1158.10 727.70 L 1150.30 723.80 L 1142.30 720.30 L 1134.00 717.30 L 1125.40 714.70 L 1116.50 712.50 L 1107.60 710.70 L 1098.50 709.50 L 1089.10 708.80 L 1079.40 708.50 L 1070.60 708.70 L 1062.00 709.40 L 1053.60 710.40 L 1045.40 711.80 L 1037.40 713.60 L 1027.40 716.40 L 1017.90 719.80 L 1008.70 723.70 L 999.90 728.10 L 991.30 733.10 L 983.20 738.50 L 975.60 744.40 L 968.30 750.70 L 961.50 757.50 L 955.20 764.60 L 949.40 772.20 L 944.10 780.10 L 940.20 786.70 L 936.70 793.50 L 933.60 800.40 L 930.90 807.60 L 928.50 815.00 L 926.50 822.50 L 925.00 830.10 L 923.90 838.00 L 923.20 846.00 L 923.00 854.20 L 923.70 868.80 L 925.90 882.90 L 933.00 889.50 L 940.40 895.70 L 948.20 901.30 L 956.50 906.50 L 965.00 911.10 L 973.80 915.20 L 983.00 918.70 L 992.50 921.70 L 1000.20 923.60 L 1008.00 925.10 L 1016.00 926.10 L 1024.20 926.80 L 1032.60 927.00 L 1041.00 926.80 L 1049.20 926.10 L 1057.20 925.10 L 1065.10 923.60 L 1072.80 921.60 L 1080.40 919.30 L 1087.80 916.60 L 1095.00 913.60 L 1102.00 910.20 L 1108.90 906.40 L 1117.10 901.20 L 1124.90 895.60 L 1132.40 889.40 L 1139.40 882.80 L 1146.10 875.70 L 1152.20 868.30 L 1157.90 860.50 L 1163.10 852.20 L 1166.80 845.40 L 1170.20 838.40 L 1173.30 831.20 L 1176.00 823.80 L 1178.30 816.10 L 1180.20 808.40 L 1181.70 800.60 L 1182.80 792.50 L 1183.40 784.30 L 1183.70 776.00 Z" fill="#febe14" fill-rule="nonzero" node-id="74" stroke="none" target-height="218.5" target-width="260.69995" target-x="923" target-y="708.5"></path><path d="M 1023.40 762.20 L 1029.80 759.10 L 1042.20 754.20 L 1048.40 752.40 L 1060.70 750.00 L 1072.10 749.20 L 1077.80 749.40 L 1083.10 750.00 L 1093.90 752.60 L 1095.00 752.50 L 1096.80 751.30 L 1097.80 749.30 L 1097.90 748.20 L 1096.90 746.10 L 1093.70 743.10 L 1090.10 740.50 L 1086.20 738.30 L 1081.70 736.50 L 1077.10 735.10 L 1072.20 734.10 L 1066.90 733.50 L 1061.20 733.30 L 1049.80 734.00 L 1043.70 735.00 L 1031.30 738.30 L 1018.80 743.20 L 1012.40 746.30 L 1005.10 750.40 L 998.40 754.90 L 992.30 759.60 L 986.50 764.70 L 981.50 769.90 L 977.00 775.20 L 973.00 780.80 L 969.80 786.40 L 967.20 791.80 L 965.70 796.10 L 964.60 800.30 L 963.90 804.30 L 963.70 808.30 L 963.90 812.20 L 964.50 816.00 L 965.60 819.70 L 967.30 823.30 L 968.00 824.30 L 970.00 825.30 L 971.60 825.20 L 973.10 824.60 L 974.50 822.90 L 976.10 813.90 L 979.10 805.80 L 981.70 800.50 L 985.00 795.20 L 989.00 789.80 L 993.40 784.80 L 998.40 779.80 L 1004.00 774.90 L 1009.90 770.50 L 1016.40 766.20 L 1023.40 762.20 Z" fill="#fff8e9" fill-rule="nonzero" node-id="76" stroke="none" target-height="92" target-width="134.20001" target-x="963.7" target-y="733.3"></path><path d="M 1309.40 882.80 L 1306.00 868.80 L 1303.40 854.20 L 1302.40 845.90 L 1301.30 829.70 L 1300.40 821.10 L 1297.30 803.00 L 1295.00 793.70 L 1292.30 784.50 L 1287.80 772.80 L 1282.40 762.10 L 1279.30 757.40 L 1276.10 753.20 L 1265.10 741.20 L 1253.90 729.80 L 1234.20 711.30 L 1250.90 731.10 L 1260.30 743.00 L 1269.30 755.50 L 1273.30 761.60 L 1278.40 770.80 L 1279.80 774.00 L 1282.40 782.40 L 1292.30 809.80 L 1295.80 823.20 L 1297.20 834.70 L 1297.40 840.60 L 1297.10 846.80 L 1295.50 859.20 L 1295.20 864.00 L 1295.20 867.80 L 1296.30 874.50 L 1298.20 878.70 L 1300.60 881.30 L 1302.70 882.50 L 1304.70 883.00 L 1306.60 883.10 L 1309.40 882.80 Z" fill="#f1eedb" fill-rule="nonzero" node-id="78" stroke="none" target-height="171.79999" target-width="75.20007" target-x="1234.2" target-y="711.3"></path><path d="M 963.70 1052.10 L 952.90 1051.60 L 946.20 1050.80 L 943.60 1050.20 L 939.10 1048.00 L 917.40 1032.50 L 892.80 1016.20 L 886.70 1011.70 L 876.10 1002.50 L 869.70 995.80 L 864.10 989.10 L 859.00 982.30 L 854.40 975.30 L 850.30 968.20 L 846.70 961.20 L 841.90 950.40 L 834.20 929.60 L 824.70 901.30 L 822.50 895.60 L 817.80 885.80 L 815.10 881.30 L 812.10 877.40 L 800.60 866.00 L 793.90 858.90 L 788.60 852.50 L 783.70 845.80 L 779.90 839.90 L 777.00 834.70 L 774.60 829.30 L 772.90 824.60 L 771.90 820.60 L 771.00 813.10 L 771.50 806.50 L 773.00 802.10 L 772.50 809.30 L 773.60 820.30 L 776.60 833.00 L 778.80 839.80 L 781.80 847.80 L 785.90 857.10 L 790.40 866.10 L 796.20 876.50 L 806.40 893.30 L 808.90 898.40 L 810.90 903.30 L 813.40 910.90 L 815.20 918.40 L 819.80 940.80 L 823.40 953.00 L 827.80 962.70 L 835.20 974.60 L 839.40 980.40 L 846.10 988.80 L 853.30 996.60 L 860.60 1004.20 L 875.20 1017.60 L 893.90 1033.10 L 901.90 1039.10 L 909.00 1043.90 L 915.30 1047.50 L 921.90 1050.80 L 927.70 1053.10 L 932.80 1054.70 L 942.50 1056.50 L 946.30 1056.70 L 953.40 1056.10 L 959.60 1054.30 L 963.70 1052.10 Z" fill="#f1eedb" fill-rule="nonzero" node-id="80" stroke="none" target-height="254.59998" target-width="192.70001" target-x="771" target-y="802.1"></path><path d="M 1054.50 1376.60 L 1046.70 1376.40 L 1038.90 1375.70 L 1031.20 1374.60 L 1023.50 1373.10 L 1016.00 1371.20 L 1002.20 1366.90 L 995.80 1365.30 L 989.40 1364.20 L 982.90 1363.60 L 967.50 1363.10 L 959.00 1362.60 L 950.60 1361.70 L 933.90 1358.70 L 917.50 1354.30 L 901.60 1348.40 L 886.30 1341.20 L 875.40 1335.30 L 871.80 1334.10 L 868.00 1333.30 L 855.40 1332.80 L 846.90 1332.10 L 838.50 1331.00 L 830.30 1329.40 L 822.20 1327.40 L 814.20 1325.00 L 806.40 1322.10 L 798.70 1318.90 L 791.30 1315.30 L 784.00 1311.30 L 777.00 1306.90 L 770.20 1302.10 L 763.70 1297.00 L 757.40 1291.50 L 751.30 1285.70 L 745.60 1279.60 L 740.30 1273.20 L 735.20 1266.40 L 730.50 1259.40 L 722.70 1246.50 L 718.90 1241.40 L 714.50 1236.50 L 709.60 1231.80 L 704.40 1227.50 L 698.60 1223.50 L 692.30 1219.70 L 683.10 1214.90 L 678.50 1210.70 L 676.20 1207.70 L 673.50 1203.40 L 670.70 1198.00 L 664.80 1184.30 L 661.30 1177.90 L 657.30 1171.90 L 652.90 1166.20 L 648.00 1161.00 L 642.80 1156.30 L 637.20 1152.00 L 631.20 1148.20 L 624.90 1144.90 L 618.30 1142.20 L 611.50 1140.10 L 602.70 1138.20 L 594.00 1135.80 L 585.70 1132.90 L 577.70 1129.40 L 570.00 1125.50 L 562.60 1121.10 L 555.60 1116.20 L 548.90 1111.00 L 542.70 1105.20 L 536.80 1099.10 L 531.30 1092.70 L 526.30 1085.90 L 521.70 1078.70 L 517.60 1071.30 L 514.00 1063.60 L 510.90 1055.60 L 508.40 1047.40 L 506.30 1039.00 L 504.90 1030.40 L 504.00 1021.60 L 503.60 1012.60 L 503.90 1004.00 L 504.80 995.60 L 506.10 987.30 L 508.00 979.20 L 511.80 966.70 L 513.30 958.10 L 513.30 949.60 L 512.30 940.50 L 513.10 933.90 L 515.30 927.60 L 517.00 924.80 L 521.70 918.40 L 523.80 914.40 L 525.50 910.20 L 526.50 905.80 L 527.00 901.20 L 526.60 887.10 L 526.80 879.90 L 527.40 872.90 L 528.50 865.90 L 530.00 859.00 L 531.90 852.20 L 534.20 845.60 L 536.90 839.10 L 539.90 832.80 L 543.40 826.70 L 547.20 820.80 L 551.40 815.10 L 559.20 805.60 L 561.90 801.40 L 564.20 797.00 L 566.00 792.30 L 567.30 787.60 L 568.10 782.80 L 568.50 778.00 L 568.30 773.10 L 566.70 763.30 L 566.50 758.20 L 566.70 753.60 L 567.30 749.10 L 568.40 744.70 L 569.80 740.40 L 571.70 736.20 L 573.90 732.30 L 576.40 728.60 L 582.10 721.70 L 584.50 718.20 L 586.50 714.60 L 588.20 710.70 L 589.50 706.70 L 591.90 697.10 L 593.60 692.70 L 595.70 688.50 L 598.20 684.50 L 601.00 680.80 L 604.20 677.40 L 607.70 674.40 L 611.40 671.60 L 615.50 669.20 L 619.70 667.20 L 624.20 665.60 L 630.80 663.80 L 632.40 662.80 L 633.80 661.40 L 634.70 659.80 L 635.20 658.00 L 634.90 649.30 L 635.10 644.00 L 635.70 638.90 L 636.80 634.00 L 638.30 629.10 L 640.10 624.40 L 642.40 619.90 L 645.00 615.60 L 647.90 611.40 L 651.20 607.60 L 654.80 604.00 L 658.80 600.70 L 665.60 595.80 L 668.00 593.70 L 676.00 583.40 L 681.00 579.50 L 686.70 576.70 L 692.90 575.30 L 696.20 575.10 L 699.90 575.30 L 703.40 576.00 L 706.70 577.00 L 709.80 578.50 L 712.70 580.30 L 715.40 582.50 L 717.80 585.00 L 722.30 590.90 L 727.50 596.20 L 740.00 605.70 L 744.50 608.70 L 749.20 611.20 L 754.10 613.40 L 764.80 617.20 L 779.10 623.90 L 782.90 625.10 L 786.70 625.80 L 790.60 626.00 L 794.40 625.70 L 798.20 624.90 L 801.80 623.60 L 805.30 621.80 L 820.60 611.00 L 823.80 608.20 L 826.90 604.90 L 832.60 597.40 L 835.70 594.10 L 839.10 591.30 L 842.80 588.80 L 846.70 586.80 L 850.80 585.10 L 855.00 583.90 L 859.40 583.20 L 864.00 583.00 L 868.70 583.20 L 873.40 584.10 L 882.50 586.80 L 887.30 587.60 L 892.20 587.90 L 901.70 587.40 L 906.10 587.60 L 910.30 588.30 L 914.40 589.40 L 918.40 590.90 L 922.20 592.80 L 925.80 595.20 L 929.20 597.80 L 932.20 600.80 L 938.50 608.50 L 942.20 612.20 L 946.10 615.40 L 950.30 618.20 L 954.60 620.50 L 968.10 625.10 L 975.20 626.20 L 978.80 626.20 L 983.50 625.60 L 988.10 624.40 L 992.60 622.60 L 998.80 618.80 L 1001.60 616.40 L 1008.70 608.90 L 1013.40 604.60 L 1018.30 600.60 L 1023.60 596.90 L 1033.60 591.00 L 1037.80 587.90 L 1041.90 584.40 L 1045.80 580.60 L 1049.40 576.40 L 1052.70 571.90 L 1055.50 567.40 L 1057.80 563.00 L 1059.70 558.20 L 1061.30 553.20 L 1063.30 544.80 L 1065.00 540.70 L 1067.00 536.90 L 1069.40 533.50 L 1072.10 530.30 L 1075.20 527.30 L 1078.40 524.70 L 1081.90 522.50 L 1085.70 520.60 L 1089.70 519.10 L 1093.70 518.00 L 1098.00 517.40 L 1102.40 517.10 L 1107.10 517.40 L 1111.60 518.10 L 1116.00 519.40 L 1125.30 523.30 L 1130.50 524.80 L 1136.00 525.70 L 1141.60 526.10 L 1147.40 525.90 L 1162.30 523.90 L 1171.30 523.10 L 1180.40 522.90 L 1189.00 523.10 L 1197.50 523.80 L 1205.90 524.90 L 1214.10 526.50 L 1222.20 528.50 L 1230.30 530.90 L 1238.10 533.70 L 1245.70 537.00 L 1253.20 540.70 L 1260.50 544.80 L 1267.60 549.20 L 1274.40 554.10 L 1281.00 559.40 L 1287.40 565.00 L 1296.10 573.50 L 1301.70 577.30 L 1304.70 578.70 L 1311.10 580.60 L 1317.80 581.10 L 1324.90 580.40 L 1328.60 580.40 L 1332.40 580.70 L 1336.80 581.60 L 1341.00 582.80 L 1345.00 584.50 L 1348.80 586.70 L 1352.40 589.10 L 1355.70 592.00 L 1358.60 595.20 L 1361.20 598.60 L 1363.50 602.40 L 1365.40 606.30 L 1366.80 610.50 L 1367.80 614.90 L 1368.30 619.50 L 1368.30 624.10 L 1367.60 630.50 L 1367.80 632.10 L 1369.00 635.20 L 1371.30 637.60 L 1378.40 643.00 L 1385.10 648.80 L 1391.40 654.80 L 1397.40 661.20 L 1403.00 667.90 L 1408.30 674.90 L 1413.10 682.20 L 1417.50 689.70 L 1421.50 697.50 L 1427.70 711.40 L 1430.70 717.00 L 1434.00 722.30 L 1443.80 735.90 L 1449.50 744.80 L 1454.70 753.90 L 1459.40 763.20 L 1463.50 772.80 L 1467.20 782.60 L 1470.30 792.60 L 1474.60 809.70 L 1476.80 816.30 L 1479.50 822.60 L 1482.70 828.70 L 1489.80 840.30 L 1492.70 846.10 L 1495.30 852.00 L 1497.30 858.10 L 1499.00 864.40 L 1500.20 870.80 L 1500.90 877.20 L 1501.10 883.80 L 1500.90 890.00 L 1499.30 901.90 L 1497.90 907.70 L 1496.10 913.40 L 1494.00 918.90 L 1488.50 929.50 L 1485.30 934.50 L 1481.70 939.30 L 1477.70 943.90 L 1471.20 950.60 L 1469.40 953.20 L 1466.60 959.10 L 1465.20 965.50 L 1465.10 968.80 L 1465.30 972.20 L 1466.80 980.50 L 1467.10 985.40 L 1466.90 988.80 L 1466.10 992.10 L 1464.70 995.60 L 1462.70 999.20 L 1460.00 1002.90 L 1456.50 1006.80 L 1452.10 1010.80 L 1443.20 1017.80 L 1440.20 1020.70 L 1437.50 1023.90 L 1435.10 1027.30 L 1433.10 1031.00 L 1431.50 1034.80 L 1430.20 1038.80 L 1429.40 1042.90 L 1428.00 1057.40 L 1426.60 1066.80 L 1424.80 1076.00 L 1422.50 1085.20 L 1419.80 1094.20 L 1416.70 1103.10 L 1413.10 1111.80 L 1409.10 1120.30 L 1404.60 1128.70 L 1399.80 1136.80 L 1394.50 1144.70 L 1387.40 1154.60 L 1385.20 1159.30 L 1384.10 1164.40 L 1383.80 1178.40 L 1383.10 1186.40 L 1382.00 1194.20 L 1380.50 1202.00 L 1378.40 1209.60 L 1376.00 1217.10 L 1373.20 1224.50 L 1369.90 1231.60 L 1366.30 1238.60 L 1362.20 1245.40 L 1357.80 1251.90 L 1353.00 1258.20 L 1347.90 1264.20 L 1342.30 1270.00 L 1336.40 1275.50 L 1331.30 1282.10 L 1325.80 1288.40 L 1320.00 1294.20 L 1313.90 1299.70 L 1307.50 1304.80 L 1300.80 1309.60 L 1293.90 1313.90 L 1286.70 1317.80 L 1279.30 1321.30 L 1271.80 1324.40 L 1264.00 1327.00 L 1256.10 1329.20 L 1248.10 1330.90 L 1239.90 1332.10 L 1231.70 1332.80 L 1211.20 1333.00 L 1203.10 1333.40 L 1195.00 1334.10 L 1178.90 1336.80 L 1162.90 1340.90 L 1147.20 1346.60 L 1131.90 1353.80 L 1116.30 1362.20 L 1108.00 1366.00 L 1099.50 1369.20 L 1090.70 1371.90 L 1081.80 1373.90 L 1072.80 1375.40 L 1063.70 1376.30 L 1054.50 1376.60 Z M 976.30 1356.10 L 983.40 1356.40 L 990.30 1357.10 L 997.20 1358.30 L 1004.10 1359.90 L 1019.40 1364.70 L 1028.00 1366.70 L 1036.70 1368.20 L 1045.50 1369.10 L 1054.50 1369.40 L 1063.30 1369.10 L 1071.90 1368.20 L 1080.40 1366.80 L 1088.90 1364.90 L 1097.20 1362.40 L 1105.20 1359.30 L 1113.10 1355.80 L 1128.60 1347.40 L 1136.50 1343.40 L 1144.50 1339.90 L 1160.90 1334.00 L 1169.20 1331.60 L 1185.80 1328.10 L 1194.30 1326.90 L 1202.70 1326.10 L 1211.10 1325.80 L 1231.30 1325.60 L 1239.20 1324.90 L 1246.90 1323.70 L 1254.50 1322.10 L 1262.10 1320.00 L 1269.40 1317.50 L 1276.60 1314.60 L 1283.70 1311.30 L 1290.50 1307.50 L 1297.10 1303.40 L 1303.40 1298.90 L 1309.50 1294.00 L 1315.30 1288.80 L 1320.80 1283.20 L 1326.00 1277.20 L 1330.80 1270.90 L 1342.30 1259.60 L 1347.30 1253.90 L 1351.80 1247.90 L 1356.00 1241.70 L 1359.90 1235.20 L 1363.40 1228.60 L 1366.50 1221.80 L 1369.20 1214.80 L 1371.50 1207.70 L 1373.50 1200.40 L 1374.90 1193.00 L 1376.00 1185.60 L 1376.70 1178.00 L 1377.00 1163.80 L 1377.50 1160.40 L 1378.40 1157.10 L 1379.60 1153.90 L 1381.20 1150.80 L 1388.70 1140.50 L 1393.80 1132.90 L 1398.40 1125.10 L 1402.70 1117.10 L 1406.50 1108.90 L 1410.00 1100.50 L 1413.00 1091.90 L 1415.60 1083.20 L 1417.80 1074.40 L 1419.50 1065.50 L 1420.90 1056.50 L 1422.30 1041.80 L 1423.30 1036.90 L 1424.70 1032.30 L 1426.70 1027.80 L 1429.00 1023.50 L 1431.80 1019.50 L 1434.90 1015.80 L 1438.50 1012.30 L 1445.50 1006.90 L 1451.50 1001.60 L 1456.60 995.40 L 1458.40 992.20 L 1459.30 989.90 L 1460.00 985.40 L 1459.70 981.30 L 1458.20 973.00 L 1457.90 968.80 L 1458.10 964.70 L 1458.80 960.60 L 1459.90 956.60 L 1461.40 952.90 L 1463.30 949.30 L 1465.70 946.00 L 1472.50 939.00 L 1479.40 930.40 L 1482.40 925.80 L 1487.40 916.00 L 1491.00 905.70 L 1492.30 900.40 L 1493.70 889.50 L 1493.90 883.80 L 1493.70 877.70 L 1493.10 871.80 L 1492.00 866.00 L 1490.50 860.20 L 1488.50 854.60 L 1486.20 849.10 L 1483.50 843.80 L 1476.40 832.20 L 1473.00 825.60 L 1470.10 818.80 L 1467.70 811.80 L 1463.30 794.50 L 1460.40 784.90 L 1456.90 775.40 L 1452.90 766.20 L 1448.40 757.30 L 1443.40 748.50 L 1437.90 740.00 L 1428.00 726.20 L 1424.50 720.50 L 1421.30 714.60 L 1415.10 700.60 L 1411.20 693.20 L 1407.00 686.00 L 1402.40 679.00 L 1397.40 672.30 L 1392.00 665.90 L 1386.30 659.80 L 1380.30 654.10 L 1364.80 641.40 L 1363.00 639.10 L 1361.60 636.40 L 1360.80 633.60 L 1360.40 630.60 L 1361.10 623.70 L 1361.10 619.90 L 1360.70 616.10 L 1359.90 612.40 L 1358.70 609.00 L 1355.30 602.60 L 1353.10 599.70 L 1348.00 594.80 L 1341.90 591.00 L 1338.60 589.60 L 1331.50 587.90 L 1326.80 587.60 L 1318.00 588.30 L 1314.00 588.20 L 1309.90 587.60 L 1305.90 586.70 L 1302.10 585.40 L 1298.30 583.60 L 1294.80 581.50 L 1291.50 579.00 L 1282.50 570.30 L 1276.40 564.90 L 1270.10 559.90 L 1263.60 555.20 L 1256.90 550.90 L 1249.90 547.00 L 1242.80 543.50 L 1235.50 540.40 L 1228.00 537.70 L 1220.30 535.40 L 1212.60 533.50 L 1204.70 532.00 L 1196.80 530.90 L 1188.60 530.30 L 1180.40 530.00 L 1171.70 530.30 L 1163.20 531.00 L 1149.60 533.00 L 1144.60 533.30 L 1135.10 532.80 L 1125.80 531.00 L 1121.40 529.50 L 1113.60 526.20 L 1110.00 525.10 L 1106.30 524.50 L 1102.40 524.30 L 1098.70 524.50 L 1091.90 525.90 L 1088.60 527.20 L 1084.50 529.30 L 1080.80 532.00 L 1077.40 535.10 L 1075.10 537.80 L 1071.50 543.80 L 1070.10 547.10 L 1068.30 555.10 L 1066.50 560.70 L 1064.30 566.00 L 1061.80 570.90 L 1058.90 575.60 L 1055.00 580.90 L 1051.00 585.50 L 1046.80 589.70 L 1042.20 593.60 L 1037.50 597.00 L 1027.50 603.00 L 1022.60 606.30 L 1018.10 610.00 L 1013.80 614.00 L 1006.50 621.60 L 1003.20 624.50 L 999.60 627.00 L 995.70 629.10 L 991.70 630.80 L 987.60 632.10 L 983.40 632.90 L 979.10 633.40 L 974.80 633.40 L 970.50 633.00 L 966.20 632.10 L 951.80 627.00 L 946.80 624.50 L 941.90 621.30 L 937.40 617.60 L 933.20 613.30 L 926.60 605.30 L 923.70 602.50 L 920.50 600.20 L 917.10 598.20 L 913.50 596.60 L 909.80 595.50 L 905.90 594.80 L 901.70 594.60 L 893.30 595.10 L 888.70 594.90 L 884.20 594.40 L 879.80 593.50 L 871.80 591.10 L 867.90 590.40 L 864.00 590.20 L 860.20 590.40 L 856.60 591.00 L 853.10 591.90 L 846.50 595.00 L 843.40 597.00 L 838.10 602.00 L 832.40 609.60 L 828.80 613.40 L 825.00 616.70 L 810.00 627.30 L 806.90 629.20 L 800.20 631.80 L 795.50 632.80 L 790.70 633.20 L 785.90 632.90 L 781.20 632.10 L 776.50 630.60 L 762.20 623.90 L 751.40 620.10 L 746.00 617.70 L 740.80 614.80 L 735.80 611.50 L 722.90 601.70 L 719.70 598.70 L 716.70 595.50 L 711.80 589.00 L 709.20 586.70 L 706.30 584.80 L 703.10 583.40 L 699.80 582.60 L 696.20 582.30 L 692.60 582.60 L 689.20 583.50 L 685.90 585.00 L 682.90 586.90 L 680.30 589.40 L 675.70 595.70 L 673.10 598.70 L 670.10 601.40 L 663.20 606.40 L 659.70 609.30 L 656.50 612.50 L 651.00 619.50 L 646.70 627.30 L 643.80 635.70 L 642.30 644.60 L 642.10 649.30 L 642.40 657.70 L 642.10 660.20 L 641.30 662.50 L 638.80 666.60 L 635.00 669.70 L 632.80 670.80 L 626.30 672.50 L 622.50 673.80 L 615.40 677.60 L 609.20 682.60 L 604.00 688.60 L 601.90 692.00 L 598.70 699.40 L 596.40 708.60 L 594.90 713.20 L 593.00 717.70 L 590.60 722.00 L 587.90 726.00 L 581.40 733.90 L 578.70 738.30 L 576.50 743.00 L 574.90 747.90 L 574.00 752.90 L 573.70 758.20 L 573.90 762.50 L 575.40 772.40 L 575.60 777.90 L 575.30 783.50 L 574.30 789.10 L 572.80 794.50 L 570.80 799.80 L 568.20 804.90 L 565.10 809.70 L 557.10 819.50 L 553.10 824.80 L 549.50 830.40 L 543.40 842.10 L 538.70 854.40 L 536.90 860.70 L 535.60 867.20 L 534.60 873.70 L 533.90 880.30 L 533.70 887.10 L 534.20 900.10 L 534.00 904.30 L 533.30 908.40 L 530.90 916.20 L 529.10 919.90 L 527.00 923.40 L 523.00 928.70 L 521.70 930.80 L 520.00 935.50 L 519.50 940.40 L 520.40 948.90 L 520.60 953.70 L 520.40 958.60 L 519.80 963.50 L 518.80 968.40 L 515.00 981.00 L 513.10 988.70 L 511.90 996.50 L 511.10 1004.50 L 510.80 1012.50 L 511.10 1021.10 L 512.00 1029.40 L 513.30 1037.50 L 515.30 1045.40 L 517.70 1053.20 L 520.60 1060.70 L 524.00 1068.00 L 527.90 1075.00 L 532.20 1081.80 L 536.90 1088.20 L 542.10 1094.30 L 547.60 1100.00 L 553.60 1105.40 L 559.80 1110.40 L 566.50 1115.00 L 573.50 1119.20 L 580.70 1122.90 L 588.30 1126.10 L 596.20 1128.80 L 617.80 1134.40 L 623.60 1136.50 L 629.30 1139.00 L 634.70 1141.90 L 639.90 1145.10 L 644.90 1148.70 L 649.60 1152.60 L 654.10 1156.90 L 658.30 1161.50 L 662.20 1166.30 L 665.70 1171.40 L 669.00 1176.80 L 671.90 1182.50 L 676.90 1194.20 L 679.20 1198.90 L 681.40 1202.60 L 684.00 1206.00 L 686.30 1208.30 L 688.40 1209.60 L 695.80 1213.40 L 702.70 1217.50 L 708.90 1221.90 L 714.50 1226.50 L 719.80 1231.50 L 724.50 1236.90 L 728.70 1242.50 L 736.50 1255.50 L 741.00 1262.20 L 745.90 1268.70 L 751.00 1274.80 L 756.40 1280.60 L 762.20 1286.20 L 768.20 1291.40 L 774.40 1296.30 L 780.90 1300.80 L 787.60 1305.00 L 794.60 1308.80 L 801.70 1312.30 L 809.00 1315.40 L 816.40 1318.10 L 824.10 1320.40 L 831.80 1322.30 L 839.70 1323.80 L 847.60 1324.90 L 869.00 1326.10 L 873.60 1327.10 L 878.10 1328.60 L 889.60 1334.80 L 904.40 1341.70 L 912.00 1344.70 L 922.30 1348.20 L 932.80 1351.00 L 943.40 1353.20 L 951.50 1354.50 L 967.80 1355.90 L 976.30 1356.10 Z" fill="#7c3114" fill-rule="nonzero" node-id="82" stroke="none" target-height="859.5" target-width="997.5" target-x="503.6" target-y="517.1"></path><path d="M 1106.80 1009.20 L 1100.60 1008.60 L 1097.50 1007.60 L 1094.40 1006.10 L 1090.60 1003.10 L 1086.20 998.00 L 1082.90 994.60 L 1077.50 990.60 L 1074.20 988.80 L 1070.70 987.40 L 1066.70 986.30 L 1062.00 985.60 L 1057.90 985.60 L 1053.50 986.20 L 1049.00 987.10 L 1025.80 994.50 L 1021.30 995.60 L 1017.30 996.10 L 1012.40 995.80 L 1010.30 995.10 L 1001.60 990.90 L 993.40 986.40 L 985.50 981.50 L 978.10 976.30 L 971.00 970.70 L 964.10 964.60 L 957.80 958.30 L 951.80 951.70 L 946.30 944.90 L 941.20 937.70 L 936.50 930.20 L 932.30 922.60 L 928.50 914.70 L 925.20 906.60 L 922.40 898.20 L 920.00 889.70 L 918.20 881.10 L 916.90 872.30 L 916.10 863.40 L 915.80 854.20 L 916.10 845.60 L 916.80 837.20 L 917.90 829.00 L 919.50 820.90 L 921.60 813.10 L 924.00 805.30 L 926.90 797.80 L 930.20 790.40 L 933.80 783.30 L 937.80 776.40 L 942.20 769.70 L 947.00 763.30 L 952.00 757.20 L 957.50 751.30 L 963.20 745.60 L 969.20 740.20 L 975.50 735.20 L 982.10 730.50 L 989.00 726.00 L 996.20 721.90 L 1003.60 718.10 L 1011.20 714.70 L 1019.00 711.70 L 1027.10 709.00 L 1035.40 706.70 L 1043.80 704.80 L 1052.40 703.30 L 1061.20 702.20 L 1070.20 701.50 L 1079.40 701.30 L 1088.70 701.50 L 1097.70 702.20 L 1106.40 703.30 L 1115.00 704.80 L 1123.40 706.70 L 1131.80 709.00 L 1139.80 711.70 L 1147.70 714.70 L 1155.30 718.10 L 1162.60 721.90 L 1169.80 726.00 L 1176.70 730.50 L 1183.30 735.20 L 1189.60 740.20 L 1195.60 745.60 L 1201.40 751.30 L 1206.80 757.20 L 1211.90 763.30 L 1216.60 769.80 L 1221.00 776.40 L 1225.00 783.30 L 1228.70 790.50 L 1231.90 797.80 L 1234.80 805.30 L 1237.30 813.10 L 1239.30 820.90 L 1240.90 829.00 L 1242.10 837.20 L 1242.80 845.60 L 1243.00 854.20 L 1242.80 863.20 L 1242.00 872.00 L 1240.70 880.80 L 1238.90 889.60 L 1236.50 898.20 L 1233.70 906.60 L 1230.40 914.90 L 1226.70 923.00 L 1222.40 930.90 L 1217.70 938.50 L 1212.60 945.90 L 1207.00 953.10 L 1201.10 959.80 L 1194.80 966.10 L 1188.20 972.10 L 1181.30 977.70 L 1174.00 983.00 L 1166.50 987.80 L 1158.80 992.20 L 1150.80 996.30 L 1142.50 999.90 L 1134.10 1003.00 L 1125.50 1005.70 L 1112.60 1008.80 L 1106.80 1009.20 Z M 1059.90 978.40 L 1067.30 979.10 L 1071.80 980.20 L 1076.00 981.80 L 1080.10 983.80 L 1083.80 986.20 L 1087.50 989.10 L 1091.00 992.60 L 1096.40 998.70 L 1098.40 1000.10 L 1102.90 1001.70 L 1107.90 1002.00 L 1115.20 1000.90 L 1123.70 998.80 L 1131.90 996.20 L 1139.90 993.30 L 1147.50 990.00 L 1155.00 986.30 L 1162.30 982.20 L 1169.20 977.80 L 1175.90 973.00 L 1182.30 968.00 L 1188.30 962.60 L 1194.10 956.90 L 1199.60 951.00 L 1204.60 944.80 L 1209.40 938.40 L 1213.80 931.60 L 1217.90 924.70 L 1221.50 917.60 L 1224.80 910.20 L 1227.60 902.70 L 1230.10 894.90 L 1232.10 887.10 L 1233.70 879.10 L 1234.90 871.00 L 1235.60 862.70 L 1235.80 854.20 L 1235.60 846.00 L 1234.90 838.00 L 1233.80 830.20 L 1232.30 822.50 L 1230.30 815.00 L 1228.00 807.60 L 1225.20 800.40 L 1222.10 793.50 L 1218.60 786.70 L 1214.80 780.10 L 1209.40 772.20 L 1203.60 764.70 L 1197.30 757.50 L 1190.50 750.70 L 1183.30 744.40 L 1175.60 738.50 L 1167.50 733.10 L 1158.90 728.10 L 1150.10 723.70 L 1140.90 719.80 L 1131.40 716.50 L 1121.50 713.60 L 1113.40 711.80 L 1105.20 710.40 L 1096.80 709.40 L 1088.20 708.70 L 1079.40 708.50 L 1070.60 708.70 L 1062.00 709.40 L 1053.60 710.40 L 1045.40 711.80 L 1037.40 713.60 L 1027.40 716.50 L 1017.90 719.80 L 1008.70 723.70 L 999.90 728.10 L 991.30 733.10 L 983.20 738.50 L 975.60 744.40 L 968.30 750.70 L 961.50 757.50 L 955.20 764.70 L 949.40 772.20 L 944.10 780.10 L 940.20 786.70 L 936.70 793.50 L 933.60 800.40 L 930.90 807.60 L 928.50 815.00 L 926.50 822.50 L 925.00 830.20 L 923.90 838.00 L 923.20 846.00 L 923.00 854.20 L 923.30 862.90 L 924.00 871.50 L 925.30 879.90 L 927.00 888.10 L 929.30 896.20 L 932.00 904.10 L 935.10 911.80 L 938.70 919.40 L 942.80 926.70 L 947.20 933.80 L 952.10 940.60 L 957.40 947.20 L 963.10 953.40 L 969.10 959.40 L 975.70 965.20 L 982.40 970.50 L 989.60 975.50 L 997.10 980.20 L 1005.00 984.50 L 1014.50 988.90 L 1018.20 988.80 L 1021.40 988.20 L 1046.40 980.40 L 1055.50 978.60 L 1059.90 978.40 Z" fill="#7c3114" fill-rule="nonzero" node-id="84" stroke="none" target-height="307.90002" target-width="327.2" target-x="915.8" target-y="701.3"></path><path d="M 1309.40 884.60 L 1308.40 884.20 L 1307.70 883.30 L 1304.20 869.00 L 1302.90 862.30 L 1300.60 846.00 L 1299.50 828.90 L 1298.50 820.00 L 1297.10 810.90 L 1295.20 801.70 L 1292.90 792.60 L 1290.20 783.70 L 1285.80 772.60 L 1280.60 762.60 L 1274.70 754.40 L 1263.90 742.50 L 1252.80 731.30 L 1233.00 712.70 L 1232.60 712.10 L 1232.50 710.70 L 1233.40 709.70 L 1234.80 709.60 L 1235.40 710.00 L 1255.40 728.70 L 1272.20 746.10 L 1277.50 752.00 L 1281.00 756.60 L 1284.30 761.80 L 1287.40 767.40 L 1290.00 773.30 L 1294.60 785.80 L 1297.30 795.40 L 1299.50 804.90 L 1301.20 814.20 L 1303.20 830.70 L 1304.20 845.70 L 1305.20 853.80 L 1307.70 868.20 L 1311.20 882.20 L 1311.00 883.60 L 1309.40 884.50 Z" fill="#7c3114" fill-rule="nonzero" node-id="86" stroke="none" target-height="175" target-width="78.69995" target-x="1232.5" target-y="709.6"></path><path d="M 963.70 1053.90 L 947.90 1052.90 L 943.20 1052.00 L 939.10 1050.10 L 913.30 1031.80 L 891.70 1017.60 L 885.50 1013.00 L 879.90 1008.40 L 874.80 1003.60 L 868.20 996.80 L 862.50 990.00 L 857.40 983.10 L 852.70 975.90 L 848.60 968.70 L 844.90 961.60 L 840.00 950.70 L 835.90 940.00 L 823.00 901.70 L 820.80 896.20 L 816.30 886.60 L 813.60 882.30 L 810.80 878.50 L 799.40 867.30 L 792.60 860.10 L 787.20 853.60 L 782.10 846.80 L 778.30 840.80 L 775.40 835.50 L 772.90 830.00 L 771.20 825.20 L 770.10 821.10 L 769.10 813.30 L 769.70 806.40 L 770.30 803.80 L 771.90 800.60 L 773.20 800.30 L 773.90 800.50 L 774.40 801.00 L 774.80 802.30 L 773.20 807.40 L 772.90 811.20 L 773.20 817.20 L 775.10 825.00 L 779.20 834.80 L 782.00 839.80 L 785.70 845.50 L 790.50 852.00 L 795.70 858.20 L 802.20 865.00 L 813.40 876.10 L 816.50 880.10 L 819.20 884.60 L 824.00 894.40 L 826.20 900.10 L 839.20 938.60 L 843.30 949.00 L 848.10 959.80 L 851.60 966.80 L 855.70 973.80 L 860.30 980.90 L 865.20 987.70 L 870.90 994.40 L 877.20 1001.00 L 887.80 1010.20 L 893.80 1014.70 L 915.40 1028.90 L 933.40 1041.70 L 937.60 1044.40 L 942.20 1046.60 L 947.40 1048.30 L 953.20 1049.50 L 964.50 1050.40 L 965.40 1051.40 L 965.50 1052.20 L 965.00 1053.40 L 963.70 1053.90 Z" fill="#7c3114" fill-rule="nonzero" node-id="88" stroke="none" target-height="253.60004" target-width="196.40002" target-x="769.1" target-y="800.3"></path><path d="M 1154.30 1673.80 L 1142.30 1673.10 L 1130.30 1670.90 L 1118.60 1667.20 L 1107.20 1661.90 L 220.00 1174.50 L 214.60 1171.40 L 209.60 1167.90 L 200.60 1160.40 L 196.50 1156.20 L 192.80 1151.70 L 189.40 1147.10 L 186.30 1142.30 L 183.60 1137.20 L 181.30 1132.00 L 179.30 1126.60 L 177.70 1121.00 L 176.60 1115.60 L 175.50 1105.00 L 175.50 1099.60 L 176.60 1089.10 L 177.70 1083.90 L 181.00 1073.70 L 185.80 1063.90 L 188.70 1059.10 L 723.70 250.80 L 727.90 245.10 L 732.40 239.80 L 737.40 234.90 L 742.70 230.40 L 748.30 226.40 L 754.20 222.80 L 760.40 219.60 L 766.80 216.90 L 773.40 214.60 L 780.20 212.90 L 787.00 211.60 L 794.10 210.70 L 801.10 210.40 L 808.20 210.50 L 815.20 211.20 L 822.30 212.40 L 829.30 214.10 L 836.10 216.30 L 842.90 219.00 L 849.50 222.30 L 1736.80 709.70 L 1742.10 712.90 L 1747.10 716.30 L 1751.80 719.90 L 1756.10 723.80 L 1764.00 732.50 L 1767.40 737.10 L 1770.40 741.90 L 1773.20 747.00 L 1775.50 752.20 L 1777.50 757.60 L 1779.10 763.20 L 1780.90 773.90 L 1781.30 784.60 L 1780.90 789.90 L 1779.00 800.30 L 1775.70 810.50 L 1773.50 815.50 L 1768.00 825.10 L 1233.00 1633.40 L 1229.60 1638.10 L 1226.00 1642.60 L 1217.80 1650.70 L 1211.90 1655.40 L 1205.60 1659.70 L 1198.90 1663.40 L 1191.90 1666.50 L 1184.70 1669.10 L 1177.30 1671.20 L 1169.70 1672.60 L 1162.10 1673.50 L 1154.30 1673.80 Z M 802.40 217.50 L 795.20 217.80 L 788.10 218.60 L 781.10 220.00 L 774.30 221.90 L 767.60 224.30 L 761.20 227.20 L 755.00 230.60 L 749.20 234.50 L 743.70 238.90 L 738.60 243.70 L 733.90 249.00 L 729.70 254.80 L 194.70 1063.00 L 191.20 1068.90 L 188.40 1074.80 L 186.10 1080.90 L 184.30 1087.10 L 183.20 1093.50 L 182.70 1099.90 L 182.70 1106.30 L 183.40 1112.80 L 184.70 1119.30 L 186.10 1124.40 L 190.10 1134.10 L 192.60 1138.70 L 198.50 1147.30 L 201.90 1151.40 L 209.70 1158.80 L 218.50 1165.30 L 223.40 1168.20 L 1110.70 1655.60 L 1116.80 1658.60 L 1123.10 1661.20 L 1129.40 1663.20 L 1135.90 1664.80 L 1142.40 1665.90 L 1148.90 1666.50 L 1155.50 1666.70 L 1162.00 1666.30 L 1168.50 1665.60 L 1174.90 1664.40 L 1181.10 1662.80 L 1187.20 1660.70 L 1193.20 1658.20 L 1198.90 1655.30 L 1204.30 1652.00 L 1209.50 1648.20 L 1214.40 1644.10 L 1219.00 1639.60 L 1223.20 1634.70 L 1227.00 1629.40 L 1762.00 821.20 L 1765.50 815.30 L 1768.40 809.40 L 1770.70 803.30 L 1772.40 797.10 L 1773.50 790.70 L 1774.10 784.30 L 1774.00 777.90 L 1773.40 771.40 L 1772.10 764.90 L 1770.60 759.80 L 1766.70 750.10 L 1764.20 745.50 L 1758.30 736.90 L 1754.80 732.80 L 1747.10 725.40 L 1738.20 718.90 L 1733.30 716.00 L 846.10 228.60 L 835.50 223.70 L 824.70 220.30 L 817.20 218.70 L 809.80 217.80 L 802.40 217.50 Z" fill="#7c3114" fill-rule="nonzero" node-id="90" stroke="none" target-height="1463.4" target-width="1605.8" target-x="175.5" target-y="210.4"></path><path d="M 1154.40 1629.60 L 1149.80 1629.40 L 1141.00 1628.00 L 1136.60 1626.70 L 1128.50 1623.10 L 241.30 1135.70 L 237.30 1133.30 L 233.80 1130.70 L 230.70 1127.90 L 227.90 1124.80 L 225.40 1121.40 L 223.40 1117.90 L 221.80 1114.30 L 220.60 1110.40 L 220.00 1107.00 L 219.70 1102.90 L 220.10 1097.00 L 221.90 1090.50 L 225.60 1083.50 L 760.60 275.20 L 763.70 271.20 L 767.20 267.50 L 771.30 264.20 L 775.80 261.40 L 780.50 259.00 L 785.70 257.10 L 791.00 255.70 L 796.60 254.90 L 802.30 254.60 L 811.40 255.30 L 820.10 257.50 L 828.20 261.10 L 1715.50 748.50 L 1719.40 750.90 L 1723.00 753.50 L 1726.10 756.40 L 1728.90 759.40 L 1731.30 762.80 L 1733.30 766.30 L 1734.90 769.90 L 1736.10 773.80 L 1736.80 777.20 L 1737.10 781.30 L 1736.60 787.20 L 1734.80 793.70 L 1733.30 797.10 L 1731.20 800.70 L 1196.20 1609.00 L 1193.10 1613.00 L 1189.50 1616.70 L 1185.40 1620.00 L 1181.00 1622.80 L 1176.20 1625.20 L 1171.10 1627.10 L 1165.70 1628.50 L 1160.20 1629.30 L 1154.40 1629.60 Z M 802.30 258.20 L 797.00 258.40 L 791.80 259.20 L 786.90 260.50 L 782.10 262.30 L 777.60 264.50 L 773.50 267.10 L 769.70 270.10 L 766.40 273.50 L 763.60 277.20 L 228.60 1085.50 L 225.30 1091.80 L 224.30 1094.70 L 223.50 1099.00 L 223.30 1102.90 L 224.10 1109.60 L 225.20 1113.00 L 226.70 1116.40 L 228.50 1119.50 L 230.80 1122.60 L 236.20 1128.00 L 243.00 1132.60 L 1130.30 1619.90 L 1137.80 1623.30 L 1146.00 1625.30 L 1154.40 1626.00 L 1159.80 1625.80 L 1164.90 1625.00 L 1169.90 1623.70 L 1174.70 1621.90 L 1179.10 1619.70 L 1183.20 1617.10 L 1187.00 1614.10 L 1190.30 1610.70 L 1193.20 1607.00 L 1728.20 798.70 L 1730.10 795.50 L 1732.40 789.60 L 1733.30 785.20 L 1733.50 781.40 L 1733.20 777.70 L 1731.50 771.20 L 1730.10 767.90 L 1728.20 764.70 L 1726.00 761.60 L 1720.60 756.20 L 1713.80 751.60 L 826.50 264.30 L 818.90 260.90 L 814.90 259.70 L 806.60 258.40 L 802.30 258.20 Z" fill="#7c3114" fill-rule="nonzero" node-id="92" stroke="none" target-height="1375" target-width="1517.4" target-x="219.7" target-y="254.6"></path><path d="M 668.00 1184.60 L 667.20 1184.40 L 452.00 1066.20 L 448.50 1063.60 L 445.90 1060.30 L 444.40 1056.30 L 443.90 1052.10 L 444.60 1047.90 L 446.50 1044.00 L 515.80 939.60 L 517.10 939.30 L 517.80 939.60 L 518.60 940.70 L 518.30 942.10 L 449.50 1046.00 L 448.30 1048.20 L 447.70 1050.50 L 447.50 1053.00 L 447.90 1055.40 L 448.70 1057.80 L 450.00 1059.90 L 451.60 1061.60 L 453.70 1063.00 L 668.90 1181.20 L 669.40 1181.70 L 669.80 1183.00 L 668.90 1184.40 L 668.00 1184.60 Z" fill="#7c3114" fill-rule="nonzero" node-id="94" stroke="none" target-height="245.29999" target-width="225.9" target-x="443.9" target-y="939.3"></path><path d="M 1113.30 1427.30 L 1110.70 1427.10 L 1108.30 1426.40 L 1105.80 1425.40 L 991.70 1362.70 L 990.80 1361.60 L 991.00 1360.20 L 992.00 1359.30 L 993.40 1359.50 L 1107.60 1422.20 L 1111.40 1423.50 L 1115.20 1423.50 L 1118.90 1422.30 L 1120.50 1421.20 L 1123.30 1418.30 L 1180.80 1331.40 L 1182.00 1330.60 L 1183.30 1330.90 L 1183.80 1331.40 L 1184.10 1332.70 L 1183.80 1333.40 L 1126.30 1420.30 L 1124.60 1422.40 L 1122.70 1424.10 L 1120.60 1425.50 L 1115.80 1427.10 L 1113.30 1427.30 Z" fill="#7c3114" fill-rule="nonzero" node-id="96" stroke="none" target-height="96.70007" target-width="193.29999" target-x="990.8" target-y="1330.6"></path><path d="M 1494.40 862.70 L 1492.90 861.90 L 1492.60 860.60 L 1492.90 859.90 L 1507.30 838.20 L 1508.40 836.00 L 1509.10 833.70 L 1509.20 831.20 L 1508.90 828.80 L 1508.00 826.40 L 1506.80 824.30 L 1505.10 822.60 L 1503.00 821.20 L 1467.60 801.70 L 1467.10 801.20 L 1466.70 800.00 L 1467.40 798.70 L 1468.70 798.30 L 1469.40 798.60 L 1504.80 818.00 L 1508.20 820.60 L 1510.80 823.90 L 1511.70 825.90 L 1512.40 827.90 L 1512.80 832.20 L 1512.10 836.40 L 1511.30 838.30 L 1495.90 861.90 L 1494.40 862.70 Z" fill="#7c3114" fill-rule="nonzero" node-id="98" stroke="none" target-height="64.400024" target-width="46.100098" target-x="1466.7" target-y="798.3"></path><path d="M 737.20 609.90 L 736.20 609.60 L 735.70 609.10 L 735.40 607.70 L 735.70 607.10 L 830.50 463.90 L 832.10 461.80 L 834.00 460.10 L 836.20 458.70 L 838.50 457.70 L 843.50 456.90 L 846.00 457.10 L 848.50 457.80 L 850.90 458.80 L 1056.80 571.90 L 1057.60 573.00 L 1057.50 574.40 L 1056.40 575.20 L 1055.00 575.10 L 849.20 462.00 L 845.40 460.70 L 841.50 460.70 L 837.80 461.90 L 836.20 463.00 L 833.50 465.90 L 738.70 609.10 L 738.00 609.70 L 737.20 609.90 Z" fill="#7c3114" fill-rule="nonzero" node-id="100" stroke="none" target-height="153.00003" target-width="322.19995" target-x="735.4" target-y="456.9"></path><path d="M 802.40 211.30 L 814.40 212.00 L 826.30 214.20 L 837.80 217.90 L 849.10 223.10 L 1736.40 710.50 L 1741.60 713.60 L 1746.60 717.00 L 1751.20 720.60 L 1759.60 728.60 L 1763.30 733.00 L 1769.70 742.40 L 1772.30 747.40 L 1776.60 757.90 L 1778.20 763.40 L 1779.30 768.70 L 1780.40 779.20 L 1780.40 784.50 L 1779.30 795.00 L 1776.70 805.20 L 1774.90 810.20 L 1770.20 819.90 L 1767.30 824.60 L 1232.30 1632.90 L 1228.90 1637.60 L 1221.40 1646.10 L 1217.20 1650.00 L 1211.30 1654.70 L 1205.10 1658.90 L 1198.50 1662.60 L 1191.60 1665.70 L 1184.50 1668.30 L 1177.10 1670.30 L 1169.60 1671.70 L 1162.00 1672.60 L 1154.30 1672.90 L 1148.30 1672.70 L 1136.40 1671.30 L 1124.60 1668.40 L 1118.90 1666.30 L 1113.20 1663.90 L 1107.70 1661.10 L 220.40 1173.70 L 215.10 1170.60 L 205.50 1163.60 L 197.20 1155.60 L 193.50 1151.20 L 187.10 1141.80 L 184.40 1136.80 L 182.10 1131.70 L 180.10 1126.30 L 178.60 1120.80 L 177.40 1115.50 L 176.30 1104.90 L 176.40 1099.70 L 177.50 1089.20 L 178.60 1084.10 L 181.90 1074.00 L 186.50 1064.30 L 189.50 1059.60 L 724.50 251.30 L 731.50 242.20 L 739.50 234.20 L 745.40 229.50 L 751.70 225.30 L 758.30 221.60 L 765.20 218.50 L 772.30 215.90 L 779.60 213.90 L 787.10 212.40 L 794.70 211.60 L 802.40 211.30 M 802.40 196.90 L 795.50 197.10 L 788.60 197.70 L 775.40 200.00 L 762.70 203.90 L 750.80 209.20 L 745.00 212.40 L 739.60 215.90 L 734.40 219.70 L 729.40 223.80 L 724.70 228.30 L 720.30 233.00 L 716.20 238.00 L 712.40 243.40 L 177.50 1051.60 L 174.00 1057.20 L 171.00 1062.90 L 168.50 1068.70 L 166.30 1074.60 L 164.60 1080.70 L 163.30 1086.80 L 162.40 1092.90 L 162.00 1099.20 L 162.00 1105.40 L 162.40 1111.70 L 163.30 1118.00 L 164.60 1124.30 L 166.40 1130.80 L 168.70 1137.10 L 171.40 1143.10 L 174.60 1149.00 L 178.10 1154.60 L 182.00 1160.00 L 186.40 1165.10 L 191.10 1170.00 L 196.10 1174.50 L 201.50 1178.80 L 207.30 1182.70 L 213.50 1186.40 L 1100.70 1673.70 L 1106.90 1676.90 L 1113.30 1679.60 L 1119.80 1681.90 L 1126.60 1683.90 L 1133.40 1685.40 L 1140.30 1686.50 L 1147.20 1687.10 L 1154.30 1687.30 L 1167.50 1686.60 L 1180.40 1684.30 L 1193.00 1680.60 L 1204.90 1675.40 L 1210.90 1672.20 L 1216.60 1668.60 L 1222.00 1664.80 L 1227.10 1660.50 L 1231.90 1656.00 L 1236.40 1651.20 L 1240.50 1646.20 L 1244.30 1640.80 L 1779.30 832.60 L 1782.70 827.00 L 1785.70 821.30 L 1788.30 815.50 L 1790.40 809.60 L 1792.20 803.50 L 1793.50 797.40 L 1794.40 791.30 L 1794.80 785.00 L 1794.80 778.80 L 1794.40 772.50 L 1793.50 766.30 L 1792.20 760.00 L 1790.30 753.40 L 1788.00 747.20 L 1785.30 741.10 L 1782.20 735.20 L 1778.60 729.60 L 1774.70 724.20 L 1770.40 719.10 L 1765.70 714.20 L 1760.60 709.70 L 1755.20 705.50 L 1749.50 701.50 L 1743.30 697.90 L 856.00 210.50 L 849.80 207.30 L 843.50 204.60 L 836.90 202.30 L 830.20 200.30 L 823.40 198.80 L 816.50 197.70 L 809.50 197.10 L 802.40 196.90 Z" fill="#ffffff" fill-rule="nonzero" node-id="102" stroke="none" target-height="1490.4" target-width="1632.8" target-x="162" target-y="196.9"></path><path d="M 1045.00 868.50 L 1042.80 868.30 L 1039.00 866.90 L 1035.80 864.40 L 1033.50 861.00 L 1032.80 859.10 L 1030.40 843.40 L 1027.20 832.30 L 1023.80 823.80 L 1021.00 818.40 L 1015.50 810.00 L 1014.50 808.10 L 1013.80 803.80 L 1014.50 799.60 L 1015.40 797.60 L 1018.30 794.20 L 1022.10 791.90 L 1024.20 791.40 L 1028.50 791.40 L 1032.60 792.80 L 1034.40 794.00 L 1036.00 795.60 L 1040.20 801.60 L 1045.80 811.40 L 1050.70 823.00 L 1054.20 834.50 L 1056.70 847.40 L 1057.50 854.80 L 1057.50 857.10 L 1056.30 861.30 L 1053.90 864.80 L 1050.30 867.30 L 1048.30 868.00 L 1045.00 868.40 Z" fill="#7c3114" fill-rule="nonzero" node-id="104" stroke="none" target-height="77.099976" target-width="43.700012" target-x="1013.8" target-y="791.4"></path><path d="M 1156.00 835.70 L 1153.90 835.50 L 1150.00 834.10 L 1146.80 831.70 L 1144.50 828.20 L 1143.80 826.30 L 1141.50 810.60 L 1138.30 799.50 L 1134.80 791.00 L 1132.00 785.60 L 1126.50 777.30 L 1125.60 775.30 L 1124.80 771.00 L 1125.60 766.80 L 1126.40 764.80 L 1129.30 761.40 L 1133.20 759.10 L 1135.30 758.60 L 1139.50 758.60 L 1143.60 760.00 L 1147.10 762.90 L 1151.30 768.80 L 1156.80 778.70 L 1161.70 790.30 L 1165.20 801.70 L 1167.70 814.60 L 1168.60 822.00 L 1168.60 824.30 L 1167.40 828.50 L 1164.90 832.00 L 1161.40 834.50 L 1159.30 835.20 L 1156.00 835.70 Z" fill="#7c3114" fill-rule="nonzero" node-id="106" stroke="none" target-height="77.10004" target-width="43.799927" target-x="1124.8" target-y="758.6"></path><g node-id="135"><path d="M 1016.60 883.50 L 1016.60 886.90 L 1016.10 888.60 L 1013.40 892.60 L 1011.10 894.70 L 1008.20 896.80 L 1005.00 898.50 L 997.40 901.20 L 989.30 902.30 L 985.80 902.20 L 982.20 901.80 L 979.20 900.90 L 975.00 898.70 L 973.70 897.40 L 972.20 894.40 L 972.20 891.00 L 972.70 889.30 L 975.40 885.40 L 977.70 883.20 L 980.60 881.20 L 983.70 879.50 L 991.40 876.80 L 999.40 875.60 L 1003.00 875.70 L 1006.60 876.20 L 1009.60 877.00 L 1012.10 878.10 L 1013.80 879.30 L 1015.10 880.50 L 1016.60 883.50 Z" fill="#fe8252" fill-rule="nonzero" group-id="1" node-id="110" stroke="none" target-height="26.700012" target-width="44.399963" target-x="972.2" target-y="875.6"></path></g><g node-id="136"><path d="M 1220.10 819.40 L 1220.20 821.10 L 1219.70 822.90 L 1218.70 824.70 L 1217.00 826.50 L 1212.40 829.60 L 1206.70 831.70 L 1200.60 832.50 L 1195.10 831.90 L 1192.80 831.00 L 1191.10 829.90 L 1189.80 828.50 L 1189.10 827.00 L 1189.00 825.30 L 1189.50 823.40 L 1190.50 821.70 L 1192.20 819.80 L 1196.80 816.80 L 1202.50 814.70 L 1208.60 813.90 L 1214.10 814.50 L 1216.40 815.30 L 1218.10 816.40 L 1219.40 817.80 L 1220.10 819.40 Z" fill="#fe8252" fill-rule="nonzero" group-id="2" node-id="115" stroke="none" target-height="18.599976" target-width="31.199951" target-x="1189" target-y="813.9"></path></g><g node-id="137"><path d="M 1511.30 1736.20 L 1511.10 1738.10 L 1510.60 1739.20 L 1509.80 1740.00 L 1508.70 1740.60 L 1507.10 1740.80 L 1441.70 1740.80 L 1440.10 1740.60 L 1438.90 1740.00 L 1437.60 1738.10 L 1437.40 1736.50 L 1437.60 1734.60 L 1438.10 1733.40 L 1438.90 1732.60 L 1440.10 1732.10 L 1441.70 1731.90 L 1507.10 1731.90 L 1508.70 1732.10 L 1509.80 1732.60 L 1511.10 1734.60 L 1511.30 1736.20 Z M 1449.80 1791.60 L 1449.10 1798.00 L 1448.60 1799.80 L 1447.80 1800.90 L 1446.80 1801.60 L 1445.50 1801.90 L 1443.30 1801.70 L 1441.60 1801.00 L 1440.50 1800.20 L 1439.40 1797.70 L 1440.30 1789.80 L 1440.90 1788.50 L 1441.90 1787.60 L 1443.20 1787.10 L 1445.20 1786.90 L 1447.10 1787.10 L 1448.30 1787.60 L 1449.20 1788.50 L 1449.70 1789.80 L 1449.80 1791.60 Z M 1475.20 1746.30 L 1476.20 1747.70 L 1476.90 1749.50 L 1477.10 1751.90 L 1477.10 1775.70 L 1476.90 1778.10 L 1476.20 1779.90 L 1475.20 1781.40 L 1473.80 1782.40 L 1472.00 1783.10 L 1463.80 1783.30 L 1462.20 1783.10 L 1461.10 1782.40 L 1460.50 1781.40 L 1460.20 1779.40 L 1460.50 1777.80 L 1461.10 1776.70 L 1462.20 1776.00 L 1463.80 1775.80 L 1467.80 1775.80 L 1467.80 1751.90 L 1449.80 1751.90 L 1449.60 1781.00 L 1449.00 1782.20 L 1448.20 1783.10 L 1447.00 1783.60 L 1443.20 1783.60 L 1442.00 1783.10 L 1441.20 1782.20 L 1440.60 1781.00 L 1440.40 1779.30 L 1440.40 1751.90 L 1440.70 1749.60 L 1441.30 1747.70 L 1442.40 1746.30 L 1443.70 1745.20 L 1445.60 1744.60 L 1448.00 1744.30 L 1469.50 1744.30 L 1471.90 1744.60 L 1473.70 1745.20 L 1475.20 1746.30 Z M 1472.30 1758.40 L 1472.10 1760.40 L 1471.40 1761.40 L 1470.30 1762.10 L 1468.70 1762.30 L 1448.80 1762.30 L 1447.20 1762.10 L 1446.10 1761.40 L 1445.50 1760.40 L 1445.30 1758.70 L 1445.50 1756.80 L 1446.20 1755.70 L 1447.20 1755.00 L 1448.80 1754.80 L 1468.70 1754.80 L 1470.30 1755.00 L 1471.40 1755.70 L 1472.10 1756.80 L 1472.30 1758.40 Z M 1472.30 1768.90 L 1472.10 1770.90 L 1471.40 1772.00 L 1470.30 1772.60 L 1468.70 1772.90 L 1448.80 1772.90 L 1447.20 1772.60 L 1446.20 1772.00 L 1445.50 1770.90 L 1445.30 1769.30 L 1445.50 1767.30 L 1446.20 1766.20 L 1447.20 1765.60 L 1448.80 1765.30 L 1468.70 1765.30 L 1470.30 1765.60 L 1471.40 1766.20 L 1472.10 1767.30 L 1472.30 1768.90 Z M 1465.00 1730.40 L 1465.20 1732.50 L 1464.90 1733.90 L 1464.20 1734.90 L 1463.10 1735.80 L 1461.40 1736.30 L 1459.20 1736.50 L 1457.80 1736.20 L 1456.80 1735.50 L 1456.00 1734.40 L 1455.40 1732.70 L 1455.20 1730.60 L 1455.50 1729.20 L 1456.20 1728.20 L 1457.30 1727.30 L 1459.10 1726.80 L 1461.20 1726.60 L 1462.60 1726.90 L 1463.60 1727.60 L 1464.50 1728.70 L 1465.00 1730.40 Z M 1469.50 1791.60 L 1469.20 1798.50 L 1467.80 1800.70 L 1466.50 1801.30 L 1464.70 1801.50 L 1462.60 1801.30 L 1461.30 1800.70 L 1460.40 1799.80 L 1459.90 1798.50 L 1459.60 1796.70 L 1459.90 1789.80 L 1460.40 1788.50 L 1461.30 1787.60 L 1464.40 1786.80 L 1466.50 1787.10 L 1467.80 1787.60 L 1468.70 1788.50 L 1469.20 1789.80 L 1469.50 1791.60 Z M 1489.10 1791.60 L 1488.90 1798.50 L 1487.40 1800.70 L 1486.10 1801.30 L 1484.30 1801.50 L 1482.20 1801.30 L 1480.90 1800.70 L 1480.00 1799.80 L 1479.50 1798.50 L 1479.30 1796.70 L 1479.50 1789.80 L 1480.00 1788.50 L 1480.90 1787.60 L 1482.20 1787.10 L 1484.30 1786.80 L 1486.10 1787.10 L 1487.40 1787.60 L 1488.30 1788.50 L 1488.90 1789.80 L 1489.10 1791.60 Z M 1492.60 1751.40 L 1492.60 1769.90 L 1492.40 1771.60 L 1491.80 1772.80 L 1491.00 1773.70 L 1489.80 1774.20 L 1486.00 1774.20 L 1484.80 1773.70 L 1484.00 1772.80 L 1483.50 1771.60 L 1483.30 1769.90 L 1483.30 1751.40 L 1484.00 1748.40 L 1484.80 1747.60 L 1486.00 1747.10 L 1489.80 1747.10 L 1491.80 1748.40 L 1492.40 1749.70 L 1492.60 1751.40 Z M 1493.30 1732.40 L 1492.70 1734.40 L 1491.90 1735.50 L 1490.90 1736.20 L 1489.50 1736.50 L 1487.40 1736.30 L 1485.60 1735.80 L 1484.50 1734.90 L 1483.80 1733.90 L 1483.50 1732.50 L 1483.70 1730.40 L 1484.20 1728.70 L 1485.10 1727.60 L 1486.10 1726.90 L 1487.50 1726.60 L 1489.60 1726.80 L 1491.40 1727.30 L 1492.50 1728.20 L 1493.20 1729.20 L 1493.50 1730.60 L 1493.30 1732.40 Z M 1509.30 1747.90 L 1509.30 1775.00 L 1509.00 1777.60 L 1508.30 1779.70 L 1507.20 1781.20 L 1505.70 1782.30 L 1503.60 1783.10 L 1498.10 1783.30 L 1496.40 1783.10 L 1495.20 1782.60 L 1494.40 1781.80 L 1493.90 1780.60 L 1493.70 1778.60 L 1494.40 1775.70 L 1495.20 1774.90 L 1496.40 1774.40 L 1499.90 1774.20 L 1500.10 1746.30 L 1500.60 1745.10 L 1502.70 1743.60 L 1504.50 1743.40 L 1506.50 1743.60 L 1507.70 1744.20 L 1508.50 1745.00 L 1509.10 1746.20 L 1509.30 1747.90 Z M 1508.70 1791.60 L 1509.30 1797.40 L 1508.70 1799.60 L 1506.90 1801.10 L 1505.40 1801.60 L 1503.20 1801.80 L 1501.90 1801.60 L 1500.90 1800.90 L 1500.10 1799.70 L 1499.10 1794.70 L 1498.90 1791.60 L 1499.00 1789.80 L 1499.50 1788.50 L 1501.60 1787.00 L 1505.50 1787.00 L 1506.80 1787.60 L 1507.80 1788.50 L 1508.40 1789.80 L 1508.70 1791.60 Z" fill="#7c3114" fill-rule="nonzero" group-id="3" hidden="true" node-id="120" stroke="none" target-height="75.30005" target-width="73.900024" target-x="1437.4" target-y="1726.6" visibility="hidden"></path><path d="M 1540.00 1746.20 L 1536.90 1751.30 L 1533.40 1756.10 L 1529.70 1760.40 L 1525.40 1764.00 L 1524.10 1764.40 L 1522.90 1764.30 L 1521.70 1763.70 L 1520.50 1762.60 L 1519.30 1760.80 L 1519.00 1759.50 L 1519.00 1758.30 L 1519.60 1757.10 L 1526.70 1749.10 L 1532.40 1740.80 L 1533.50 1739.90 L 1535.90 1739.50 L 1539.30 1741.10 L 1540.20 1742.10 L 1540.60 1743.20 L 1540.60 1744.50 L 1540.00 1746.10 Z M 1523.70 1792.10 L 1582.30 1792.10 L 1582.50 1790.60 L 1583.90 1788.90 L 1587.40 1788.20 L 1589.20 1788.40 L 1590.50 1789.00 L 1591.40 1789.80 L 1592.10 1792.90 L 1591.90 1795.80 L 1591.20 1797.70 L 1590.10 1799.20 L 1588.60 1800.20 L 1586.50 1800.80 L 1583.60 1801.10 L 1523.70 1801.10 L 1520.90 1800.40 L 1520.10 1799.60 L 1519.60 1798.40 L 1519.40 1796.80 L 1519.60 1794.80 L 1520.10 1793.60 L 1522.10 1792.30 L 1523.70 1792.10 Z M 1525.30 1729.00 L 1582.70 1729.00 L 1585.40 1729.30 L 1587.40 1730.00 L 1588.90 1731.00 L 1589.90 1732.50 L 1590.60 1734.50 L 1590.90 1739.60 L 1590.70 1741.30 L 1590.20 1742.50 L 1589.30 1743.40 L 1588.10 1743.90 L 1586.10 1744.10 L 1584.30 1743.90 L 1583.10 1743.40 L 1582.20 1742.50 L 1581.70 1741.30 L 1581.50 1737.80 L 1523.70 1737.60 L 1522.60 1737.10 L 1521.30 1735.20 L 1521.30 1731.60 L 1521.80 1730.50 L 1522.60 1729.70 L 1525.30 1729.00 Z M 1526.30 1768.50 L 1527.70 1767.40 L 1529.70 1766.70 L 1532.30 1766.40 L 1579.90 1766.40 L 1582.40 1766.70 L 1584.40 1767.40 L 1585.90 1768.50 L 1587.00 1770.00 L 1587.70 1771.90 L 1588.00 1779.30 L 1587.70 1781.90 L 1587.00 1783.80 L 1585.90 1785.30 L 1584.40 1786.50 L 1582.50 1787.20 L 1579.90 1787.40 L 1532.30 1787.40 L 1529.80 1787.20 L 1527.80 1786.50 L 1526.30 1785.40 L 1525.20 1783.90 L 1524.50 1781.90 L 1524.20 1779.30 L 1524.50 1772.00 L 1525.20 1770.00 L 1526.30 1768.50 Z M 1536.30 1746.80 L 1537.80 1747.10 L 1542.30 1749.70 L 1545.50 1750.80 L 1548.90 1751.40 L 1588.90 1751.60 L 1590.50 1751.80 L 1591.70 1752.30 L 1592.50 1753.10 L 1593.00 1754.30 L 1593.20 1755.90 L 1593.00 1757.80 L 1592.50 1759.00 L 1591.70 1759.80 L 1590.50 1760.30 L 1549.20 1760.30 L 1542.10 1759.00 L 1538.80 1757.80 L 1535.70 1756.20 L 1533.00 1754.30 L 1531.50 1752.40 L 1531.50 1750.50 L 1532.00 1749.50 L 1534.20 1747.40 L 1536.30 1746.80 Z M 1578.20 1779.30 L 1578.20 1774.60 L 1534.00 1774.60 L 1534.00 1779.30 L 1578.20 1779.30 Z M 1555.90 1763.00 L 1558.00 1763.20 L 1559.30 1763.80 L 1560.20 1764.70 L 1560.80 1765.90 L 1561.00 1767.70 L 1561.00 1791.80 L 1560.80 1793.60 L 1560.20 1794.90 L 1559.30 1795.80 L 1558.00 1796.40 L 1555.90 1796.60 L 1554.10 1796.40 L 1552.90 1795.80 L 1552.00 1794.90 L 1551.40 1793.60 L 1551.20 1791.80 L 1551.40 1765.90 L 1552.00 1764.70 L 1552.90 1763.80 L 1554.10 1763.20 L 1555.90 1763.00 Z M 1556.10 1733.40 L 1558.20 1733.60 L 1559.50 1734.20 L 1560.40 1735.10 L 1560.90 1736.30 L 1561.20 1738.10 L 1560.90 1753.10 L 1560.40 1754.40 L 1559.50 1755.30 L 1558.20 1755.80 L 1556.40 1756.00 L 1554.30 1755.80 L 1553.00 1755.30 L 1551.60 1753.10 L 1551.30 1751.30 L 1551.60 1736.30 L 1553.00 1734.20 L 1554.30 1733.60 L 1556.10 1733.40 Z M 1560.20 1740.70 L 1580.60 1740.70 L 1582.40 1740.90 L 1583.60 1741.70 L 1584.30 1742.80 L 1584.50 1744.90 L 1584.30 1746.70 L 1583.50 1747.90 L 1582.40 1748.60 L 1580.60 1748.90 L 1560.20 1748.90 L 1558.40 1748.60 L 1557.20 1747.90 L 1556.50 1746.70 L 1556.30 1744.60 L 1556.50 1742.80 L 1557.20 1741.70 L 1558.40 1740.90 L 1560.20 1740.70 Z" fill="#7c3114" fill-rule="nonzero" group-id="3" hidden="true" node-id="122" stroke="none" target-height="72.099976" target-width="74.19995" target-x="1519" target-y="1729" visibility="hidden"></path><path d="M 1617.90 1747.00 L 1615.80 1760.00 L 1613.30 1771.30 L 1610.70 1781.10 L 1610.00 1782.80 L 1609.10 1783.80 L 1608.00 1784.40 L 1606.60 1784.60 L 1604.80 1784.20 L 1602.80 1783.30 L 1601.20 1781.20 L 1601.10 1779.80 L 1605.50 1761.50 L 1608.50 1744.10 L 1609.10 1743.00 L 1610.70 1741.80 L 1613.80 1741.60 L 1615.60 1742.00 L 1617.50 1743.70 L 1617.90 1745.10 L 1617.90 1747.00 Z M 1643.20 1731.90 L 1643.20 1792.70 L 1642.90 1795.50 L 1642.10 1797.70 L 1640.90 1799.30 L 1639.30 1800.50 L 1637.10 1801.30 L 1634.20 1801.60 L 1626.40 1801.30 L 1625.10 1800.80 L 1623.70 1798.60 L 1623.50 1796.80 L 1623.70 1794.70 L 1624.20 1793.40 L 1625.10 1792.50 L 1628.20 1791.80 L 1633.20 1791.80 L 1633.20 1731.90 L 1633.40 1730.10 L 1634.00 1728.80 L 1634.90 1727.90 L 1636.20 1727.30 L 1638.30 1727.10 L 1640.20 1727.30 L 1641.40 1727.90 L 1642.40 1728.80 L 1642.90 1730.10 L 1643.20 1731.90 Z M 1665.90 1742.30 L 1667.20 1744.10 L 1667.60 1745.70 L 1669.50 1757.80 L 1671.70 1768.60 L 1674.20 1778.00 L 1674.60 1779.80 L 1674.40 1781.20 L 1673.80 1782.40 L 1672.80 1783.30 L 1670.90 1784.20 L 1669.10 1784.60 L 1667.70 1784.40 L 1666.60 1783.80 L 1665.70 1782.80 L 1662.70 1772.70 L 1660.60 1763.70 L 1659.00 1754.80 L 1657.70 1745.10 L 1658.10 1743.70 L 1660.10 1742.00 L 1661.90 1741.60 L 1663.80 1741.50 L 1665.90 1742.20 Z" fill="#7c3114" fill-rule="nonzero" group-id="3" hidden="true" node-id="124" stroke="none" target-height="74.5" target-width="73.5" target-x="1601.1" target-y="1727.1" visibility="hidden"></path><path d="M 1716.90 1736.80 L 1716.90 1792.90 L 1716.60 1795.70 L 1715.90 1797.80 L 1714.70 1799.40 L 1713.10 1800.60 L 1711.00 1801.30 L 1708.20 1801.60 L 1703.50 1801.40 L 1702.20 1800.80 L 1701.30 1799.90 L 1700.80 1798.60 L 1700.50 1796.80 L 1700.80 1794.70 L 1701.30 1793.40 L 1702.20 1792.50 L 1703.50 1792.00 L 1707.40 1791.80 L 1707.40 1737.90 L 1694.20 1737.90 L 1694.20 1765.60 L 1693.90 1774.30 L 1693.00 1782.60 L 1691.50 1790.60 L 1689.50 1798.20 L 1687.80 1800.90 L 1686.70 1801.40 L 1685.40 1801.50 L 1683.70 1801.10 L 1681.80 1800.10 L 1680.80 1799.10 L 1680.30 1798.00 L 1680.20 1796.60 L 1682.30 1788.30 L 1683.60 1781.20 L 1684.40 1773.70 L 1684.70 1765.60 L 1684.70 1736.80 L 1685.00 1733.90 L 1685.70 1731.80 L 1686.90 1730.30 L 1688.40 1729.10 L 1690.50 1728.40 L 1693.40 1728.10 L 1708.20 1728.10 L 1711.00 1728.40 L 1713.20 1729.10 L 1714.70 1730.30 L 1715.90 1731.80 L 1716.60 1733.90 L 1716.90 1736.80 Z M 1712.10 1754.10 L 1711.90 1756.20 L 1711.40 1757.40 L 1710.50 1758.30 L 1709.20 1758.90 L 1707.50 1759.10 L 1692.20 1758.90 L 1690.10 1757.40 L 1689.50 1756.20 L 1689.30 1754.40 L 1689.50 1752.30 L 1690.10 1751.10 L 1691.00 1750.20 L 1692.20 1749.60 L 1694.00 1749.40 L 1709.20 1749.60 L 1710.50 1750.20 L 1711.40 1751.10 L 1712.10 1754.10 Z M 1712.10 1774.50 L 1711.90 1776.60 L 1711.40 1777.90 L 1710.50 1778.70 L 1709.20 1779.30 L 1707.50 1779.50 L 1692.20 1779.30 L 1690.10 1777.90 L 1689.50 1776.60 L 1689.30 1774.90 L 1689.50 1772.80 L 1690.10 1771.50 L 1692.20 1770.10 L 1694.00 1769.90 L 1709.20 1770.10 L 1710.50 1770.60 L 1711.40 1771.50 L 1711.90 1772.80 L 1712.10 1774.50 Z M 1756.30 1736.80 L 1756.30 1792.90 L 1756.00 1795.70 L 1755.30 1797.80 L 1754.10 1799.40 L 1752.50 1800.60 L 1750.40 1801.30 L 1747.60 1801.60 L 1743.00 1801.40 L 1741.70 1800.80 L 1740.80 1799.90 L 1740.20 1798.60 L 1740.00 1796.50 L 1740.20 1794.70 L 1740.80 1793.40 L 1741.70 1792.60 L 1743.00 1792.00 L 1746.80 1791.80 L 1746.80 1737.90 L 1732.10 1737.90 L 1732.10 1765.60 L 1731.80 1774.30 L 1731.00 1782.70 L 1729.60 1790.70 L 1727.80 1798.40 L 1727.10 1800.00 L 1726.20 1801.00 L 1723.90 1801.70 L 1722.10 1801.40 L 1720.30 1800.60 L 1719.30 1799.70 L 1718.70 1798.60 L 1718.50 1797.20 L 1720.40 1788.40 L 1721.60 1781.10 L 1722.40 1773.50 L 1722.60 1736.80 L 1722.90 1734.00 L 1723.60 1731.80 L 1724.80 1730.30 L 1726.40 1729.10 L 1728.50 1728.40 L 1731.30 1728.10 L 1747.60 1728.10 L 1750.40 1728.40 L 1752.50 1729.10 L 1754.10 1730.30 L 1755.30 1731.80 L 1756.00 1734.00 L 1756.30 1736.80 Z M 1751.50 1754.10 L 1751.30 1756.20 L 1750.80 1757.40 L 1749.90 1758.30 L 1748.60 1758.90 L 1746.90 1759.10 L 1730.10 1758.90 L 1728.80 1758.30 L 1727.90 1757.40 L 1727.40 1756.20 L 1727.20 1754.40 L 1727.40 1752.30 L 1727.90 1751.10 L 1728.80 1750.20 L 1730.10 1749.60 L 1731.80 1749.40 L 1748.60 1749.60 L 1749.90 1750.20 L 1750.80 1751.10 L 1751.30 1752.30 L 1751.50 1754.10 Z M 1751.50 1774.50 L 1751.30 1776.60 L 1750.80 1777.90 L 1749.90 1778.80 L 1748.60 1779.30 L 1746.90 1779.50 L 1730.10 1779.30 L 1728.80 1778.80 L 1727.90 1777.90 L 1727.40 1776.60 L 1727.20 1774.90 L 1727.40 1772.80 L 1727.90 1771.50 L 1730.10 1770.10 L 1731.80 1769.90 L 1748.60 1770.10 L 1749.90 1770.60 L 1750.80 1771.50 L 1751.30 1772.80 L 1751.50 1774.50 Z" fill="#7c3114" fill-rule="nonzero" group-id="3" hidden="true" node-id="126" stroke="none" target-height="73.599976" target-width="76.1001" target-x="1680.2" target-y="1728.1" visibility="hidden"></path><path d="M 1794.50 1732.10 L 1790.80 1749.00 L 1788.50 1757.30 L 1782.60 1773.60 L 1779.30 1781.20 L 1772.20 1795.00 L 1771.10 1796.40 L 1770.00 1797.30 L 1768.80 1797.60 L 1767.40 1797.50 L 1765.80 1796.80 L 1764.00 1795.50 L 1763.20 1794.40 L 1762.80 1793.10 L 1763.00 1791.70 L 1768.70 1780.30 L 1773.10 1770.50 L 1776.90 1760.80 L 1780.10 1750.90 L 1782.70 1740.90 L 1785.30 1729.10 L 1786.00 1727.90 L 1787.10 1727.10 L 1788.40 1726.70 L 1790.50 1726.80 L 1792.20 1727.20 L 1793.40 1728.00 L 1794.10 1729.00 L 1794.50 1730.30 L 1794.40 1732.10 Z M 1838.10 1738.60 L 1837.90 1740.70 L 1837.30 1742.00 L 1836.50 1742.90 L 1835.20 1743.40 L 1833.40 1743.60 L 1769.20 1743.60 L 1767.40 1743.40 L 1766.20 1742.90 L 1765.30 1742.00 L 1764.70 1740.70 L 1764.50 1738.60 L 1764.70 1736.90 L 1765.30 1735.60 L 1766.20 1734.70 L 1767.40 1734.20 L 1769.20 1734.00 L 1833.40 1734.00 L 1835.20 1734.20 L 1836.50 1734.70 L 1837.90 1736.90 L 1838.10 1738.60 Z M 1831.10 1756.30 L 1832.10 1757.90 L 1832.50 1760.00 L 1832.40 1762.60 L 1831.60 1765.80 L 1829.40 1770.40 L 1826.90 1774.70 L 1823.90 1778.90 L 1820.50 1782.80 L 1816.80 1786.50 L 1812.90 1789.80 L 1808.80 1792.90 L 1799.80 1798.00 L 1790.50 1801.70 L 1785.60 1803.00 L 1783.90 1803.10 L 1782.50 1802.80 L 1781.60 1802.10 L 1780.80 1801.00 L 1780.20 1797.20 L 1780.60 1795.90 L 1781.30 1794.90 L 1782.50 1794.00 L 1789.80 1791.90 L 1795.20 1789.80 L 1800.30 1787.20 L 1805.20 1784.20 L 1809.60 1780.70 L 1813.50 1776.80 L 1816.20 1773.50 L 1820.70 1766.50 L 1822.50 1762.60 L 1788.20 1762.60 L 1786.50 1762.40 L 1785.20 1761.80 L 1784.30 1760.90 L 1783.80 1759.70 L 1783.80 1755.80 L 1784.30 1754.60 L 1785.20 1753.70 L 1788.20 1752.90 L 1821.80 1752.90 L 1825.20 1753.20 L 1827.70 1753.90 L 1829.70 1754.90 L 1831.10 1756.20 Z M 1799.40 1769.10 L 1803.20 1773.70 L 1807.00 1777.70 L 1814.90 1784.10 L 1822.50 1788.50 L 1828.40 1791.00 L 1836.10 1793.60 L 1837.10 1794.50 L 1837.70 1795.60 L 1837.90 1796.90 L 1837.70 1798.70 L 1836.90 1800.70 L 1836.00 1801.70 L 1834.90 1802.30 L 1833.60 1802.50 L 1831.80 1802.20 L 1826.60 1800.40 L 1817.00 1796.30 L 1808.10 1790.80 L 1803.70 1787.40 L 1799.50 1783.70 L 1795.50 1779.50 L 1791.50 1774.70 L 1790.60 1773.10 L 1790.30 1771.80 L 1790.50 1770.60 L 1791.20 1769.40 L 1792.50 1768.20 L 1794.40 1767.20 L 1795.70 1766.90 L 1796.90 1767.10 L 1799.40 1769.10 Z" fill="#7c3114" fill-rule="nonzero" group-id="3" hidden="true" node-id="128" stroke="none" target-height="76.400024" target-width="75.29993" target-x="1762.8" target-y="1726.7" visibility="hidden"></path></g><path d="M 1070.90 1105.30 L 1066.50 1106.40 L 1063.80 1107.40 L 1058.30 1110.20 L 1055.90 1111.80 L 1053.80 1113.70 L 1052.40 1115.50 L 1052.00 1116.80 L 1052.00 1117.80 L 1052.50 1118.70 L 1053.60 1119.50 L 1057.80 1121.20 L 1061.40 1121.90 L 1078.60 1124.10 L 1095.30 1127.50 L 1099.00 1127.90 L 1106.60 1127.90 L 1111.10 1126.90 L 1114.00 1125.60 L 1116.70 1124.00 L 1124.80 1117.80 L 1131.80 1113.70 L 1136.40 1111.80 L 1142.20 1110.00 L 1153.30 1107.20 L 1158.70 1105.40 L 1161.20 1103.90 L 1164.30 1101.60 L 1165.70 1100.10 L 1166.40 1098.70 L 1166.50 1097.40 L 1166.10 1096.10 L 1165.30 1094.90 L 1163.80 1093.70 L 1160.00 1091.90 L 1154.60 1091.00 L 1148.20 1091.20 L 1141.20 1092.70 L 1137.50 1094.10 L 1128.90 1098.00 L 1121.60 1102.20 L 1119.20 1103.10 L 1111.80 1103.50 L 1101.00 1102.70 L 1086.40 1104.50 L 1070.90 1105.30 Z" fill="#f1eedb" fill-rule="nonzero" node-id="131" stroke="none" target-height="36.900024" target-width="114.5" target-x="1052" target-y="1091"></path><path d="M 1367.40 1100.30 L 1368.30 1093.80 L 1368.10 1091.70 L 1367.60 1089.60 L 1366.80 1088.20 L 1365.80 1087.10 L 1363.10 1085.80 L 1359.30 1085.70 L 1357.10 1086.30 L 1353.40 1088.00 L 1352.40 1089.10 L 1351.00 1091.40 L 1342.90 1108.30 L 1341.00 1111.50 L 1338.80 1114.40 L 1336.60 1116.60 L 1334.90 1117.60 L 1333.30 1118.20 L 1331.50 1118.30 L 1319.40 1117.20 L 1313.10 1117.50 L 1308.50 1119.00 L 1306.50 1120.20 L 1304.70 1121.90 L 1302.90 1124.20 L 1296.00 1135.20 L 1292.60 1139.10 L 1286.20 1144.20 L 1285.00 1145.80 L 1283.40 1149.60 L 1282.90 1153.70 L 1283.10 1155.80 L 1284.40 1159.30 L 1285.40 1160.70 L 1286.80 1161.70 L 1288.40 1162.30 L 1290.20 1162.40 L 1292.40 1161.90 L 1295.20 1160.70 L 1299.00 1158.40 L 1311.90 1148.50 L 1316.60 1145.90 L 1323.30 1143.50 L 1332.60 1142.40 L 1334.70 1141.60 L 1336.70 1140.40 L 1339.30 1138.20 L 1341.90 1135.20 L 1349.00 1125.80 L 1351.80 1122.50 L 1359.20 1115.80 L 1362.80 1111.80 L 1364.50 1108.90 L 1365.90 1105.40 L 1367.40 1100.30 Z" fill="#f1eedb" fill-rule="nonzero" node-id="133" stroke="none" target-height="76.70007" target-width="85.400024" target-x="1282.9" target-y="1085.7"></path></svg>